<svg xmlns="http://www.w3.org/2000/svg" viewBox="0 0 48 48" id="accounting"><path d="M7,37V12h7a1,1,0,0,0,1-1V4H34a1,1,0,0,1,1,1V18h2V5a3,3,0,0,0-3-3H14a1,1,0,0,0-.71.29l-8,8A1,1,0,0,0,5,11V37a3,3,0,0,0,3,3H21.94V38H8A1,1,0,0,1,7,37ZM8.41,10,13,5.41V10ZM11,15H22v2H11Zm6-5h5v2H17ZM11,20H22v2H11Zm0,5H22v2H11Zm0,5H22v2H11ZM40,20H28a3,3,0,0,0-3,3V43a3,3,0,0,0,3,3H40a3,3,0,0,0,3-3V23A3,3,0,0,0,40,20Zm1,23a1,1,0,0,1-1,1H28a1,1,0,0,1-1-1V23a1,1,0,0,1,1-1H40a1,1,0,0,1,1,1ZM38,24H30a1,1,0,0,0-1,1v4a1,1,0,0,0,1,1h8a1,1,0,0,0,1-1V25A1,1,0,0,0,38,24Zm-1,4H31V26h6Zm-8,4h4v2H29Zm6,0h4v2H35Zm-6,4h4v2H29Zm6,0h4v2H35Zm-6,4h4v2H29Zm6,0h4v2H35ZM27,10v1h3a1,1,0,0,1,1,1v3a1,1,0,0,1-1,1H29v1H27V16H25V14h4V13H26a1,1,0,0,1-1-1V9a1,1,0,0,1,1-1h1V7h2V8h2v2Z" data-name="26 Accounting, Calculate, Calculator, Finance"></path></svg>