<svg id="SvgjsSvg1177" width="360" height="360" xmlns="http://www.w3.org/2000/svg" version="1.1" xmlns:xlink="http://www.w3.org/1999/xlink" xmlns:svgjs="http://svgjs.com/svgjs"><defs id="SvgjsDefs1178"></defs><g id="SvgjsG1179"><svg xmlns="http://www.w3.org/2000/svg" fill-rule="evenodd" stroke-linejoin="round" stroke-miterlimit="2" clip-rule="evenodd" viewBox="0 0 3000 2161" width="360" height="360"><g transform="matrix(2 0 0 2 -9600 .34)" fill="#000000" class="color000 svgShape"><rect width="1500" height="1080" x="4800" fill="none"></rect><g transform="translate(-1726.09 -216.679) scale(1.27826)" fill="#000000" class="color000 svgShape"><rect width="422.772" height="264.841" x="-1758.34" y="2145.63" fill="#daddf3" transform="matrix(.8468 -.4889 .81185 .46872 5223.88 -1095.78)" class="colore1e3ee svgShape"></rect><rect width="422.772" height="264.841" x="-1758.34" y="2145.63" fill="#daddf3" transform="matrix(.5286 -.30518 .74658 .43104 5020.82 -661.4)" class="colore1e3ee svgShape"></rect><ellipse cx="-1694.17" cy="2493.78" fill="#daddf3" rx="51.567" ry="44.658" transform="matrix(.76153 -.43967 .87934 .50769 4911.36 -1091.98)" class="colore1e3ee svgShape"></ellipse><ellipse cx="-1694.17" cy="2493.78" fill="#daddf3" rx="51.567" ry="44.658" transform="matrix(.76153 -.43967 .87934 .50769 4824.89 -1122.83)" class="colore1e3ee svgShape"></ellipse><g transform="translate(-1311.56 -133.529) scale(1.24502)" fill="#000000" class="color000 svgShape"><g transform="translate(4238.26 -874.282) scale(1.58202)" fill="#000000" class="color000 svgShape"><ellipse cx="877.721" cy="889.003" fill="#daddf3" rx="21.115" ry="9.004" transform="translate(-9.924 .883)" class="colore1e3ee svgShape"></ellipse><ellipse cx="877.721" cy="889.003" fill="#daddf3" rx="21.115" ry="9.004" transform="matrix(1.34909 0 0 1.24436 -337.444 -198.632)" class="colore1e3ee svgShape"></ellipse><g transform="rotate(-11.347 897.93 876.108)" fill="#000000" class="color000 svgShape"><path fill="#40c3fd" d="M838.433,898.119C833.162,887.161 815.313,861.946 826.27,847.845C836.404,834.805 850.049,852.676 852.971,867.264C852.971,867.264 844.283,804.651 865.345,803.464C886.407,802.277 879.17,842.957 875.433,859.855C875.433,859.855 893.722,826.362 906.47,838.374C919.218,850.386 877.53,902.745 877.53,902.745C874.744,907.718 867.016,913.537 857.893,913.593C850.348,913.639 842.025,905.587 838.433,898.119Z" transform="translate(12.374 -23.201)" class="color40c3fd svgShape"></path><path fill="#f2f3f7" d="M878.738,795.336C878.775,794.743 879.287,794.293 879.879,794.331C880.471,794.368 880.921,794.879 880.884,795.471C880.884,795.471 876.527,864.212 869.915,890.957C869.773,891.533 869.19,891.885 868.614,891.743C868.038,891.6 867.686,891.017 867.828,890.441C874.413,863.803 878.738,795.336 878.738,795.336Z" class="colorf2f3f7 svgShape"></path><path fill="#f2f3f7" d="M851.167 841.899C851.041 841.32 851.409 840.747 851.989 840.621 852.569 840.495 853.142 840.863 853.268 841.443 853.268 841.443 855.421 851.349 860.07 860.615 863.096 866.647 867.16 872.44 872.452 874.865 872.992 875.113 873.229 875.751 872.982 876.291 872.735 876.83 872.096 877.067 871.557 876.82 865.866 874.212 861.402 868.065 858.148 861.579 853.376 852.068 851.167 841.899 851.167 841.899zM874.738 862.478C874.186 862.696 873.561 862.426 873.342 861.875 873.123 861.323 873.393 860.698 873.945 860.479 873.945 860.479 896.89 851.407 905.683 833.186 905.941 832.651 906.584 832.427 907.119 832.685 907.653 832.943 907.878 833.586 907.62 834.12 898.498 853.021 874.738 862.478 874.738 862.478z" class="colorf2f3f7 svgShape"></path></g><g transform="translate(-49.6 12.48)" fill="#000000" class="color000 svgShape"><path fill="#10243e" d="M890.496,864.055C903.226,863.912 899.717,872.701 907.727,877.88C915.065,882.625 914.901,892.996 903.139,895.137C891.378,897.278 881.4,896.939 873.266,894.478C858.592,890.037 861.515,879.578 870.899,876.523C878.665,873.996 881.049,864.16 890.496,864.055Z" transform="translate(8.56 .309)" class="color10243e svgShape"></path><ellipse cx="901.391" cy="872.661" fill="#daddf3" rx="1.934" ry="1.863" transform="translate(-466.967 -452.088) scale(1.51916)" class="colore1e3ee svgShape"></ellipse><ellipse cx="906.34" cy="878.462" fill="#daddf3" rx="1.007" ry="1.354" transform="matrix(1.46885 0 0 1 -424.468 0)" class="colore1e3ee svgShape"></ellipse></g></g><g transform="translate(-124.097 22.996)" fill="#000000" class="color000 svgShape"><g transform="translate(4800 -1374.67)" fill="#000000" class="color000 svgShape"><path fill="#abb3db" d="M742.874,2057.94C740.856,2056.66 739.624,2054.44 739.624,2052.04L739.624,2018.94C739.624,2013.05 742.542,2007.53 747.417,2004.21L916.379,1886.36L956.365,1840.73C957.657,1839.47 959.101,1838.37 960.665,1837.47L986.364,1822.63C988.473,1821.41 991.072,1821.41 993.181,1822.63C993.265,1822.68 993.348,1822.73 993.43,1822.78L993.435,1822.78L1167.59,1923.32L917.022,2158.49L742.87,2057.94L742.874,2057.94Z" class="colorabb3db svgShape"></path><clipPath id="a"><path d="M742.874,2057.94C740.856,2056.66 739.624,2054.44 739.624,2052.04L739.624,2018.94C739.624,2013.05 742.542,2007.53 747.417,2004.21L916.379,1886.36L956.365,1840.73C957.657,1839.47 959.101,1838.37 960.665,1837.47L986.364,1822.63C988.473,1821.41 991.072,1821.41 993.181,1822.63C993.265,1822.68 993.348,1822.73 993.43,1822.78L993.435,1822.78L1167.59,1923.32L917.022,2158.49L742.87,2057.94L742.874,2057.94Z" fill="#000000" class="color000 svgShape"></path></clipPath><g clip-path="url(#a)" fill="#000000" class="color000 svgShape"><rect width="56.405" height="23.191" x="873.363" y="1387.6" fill="#af1aa8" transform="matrix(3.17111 1.83084 0 1.73934 -2030.68 -1997.22)" class="color7887da svgShape"></rect><path fill="#af1aa8" d="M933.969,1387.47L877.564,1387.47L864.225,1430.21L920.63,1430.21L933.969,1387.47Z" transform="matrix(3.17111 1.83084 0 1.73934 -1828.48 -2181.43)" class="color7887da svgShape"></path></g></g><g transform="matrix(.82169 -.9724 1.17021 .67562 4362.2 -2221.69)" fill="#000000" class="color000 svgShape"><path fill="#10243e" d="M-1305.29,2125.15C-1305.29,2120.24 -1309.45,2116.25 -1314.59,2116.25L-1333.2,2116.25C-1338.33,2116.25 -1342.5,2120.24 -1342.5,2125.15L-1342.5,2230.46C-1342.5,2235.38 -1338.33,2239.37 -1333.2,2239.37L-1314.59,2239.37C-1309.45,2239.37 -1305.29,2235.38 -1305.29,2230.46L-1305.29,2125.15Z" class="color10243e svgShape"></path><clipPath id="b"><path d="M-1305.29,2125.15C-1305.29,2120.24 -1309.45,2116.25 -1314.59,2116.25L-1333.2,2116.25C-1338.33,2116.25 -1342.5,2120.24 -1342.5,2125.15L-1342.5,2230.46C-1342.5,2235.38 -1338.33,2239.37 -1333.2,2239.37L-1314.59,2239.37C-1309.45,2239.37 -1305.29,2235.38 -1305.29,2230.46L-1305.29,2125.15Z" fill="#000000" class="color000 svgShape"></path></clipPath><g clip-path="url(#b)" fill="#000000" class="color000 svgShape"><path fill="#40c3fd" d="M-1305.29,2125.15C-1305.29,2120.24 -1309.45,2116.25 -1314.59,2116.25L-1333.2,2116.25C-1338.33,2116.25 -1342.5,2120.24 -1342.5,2125.15L-1342.5,2230.46C-1342.5,2235.38 -1338.33,2239.37 -1333.2,2239.37L-1314.59,2239.37C-1309.45,2239.37 -1305.29,2235.38 -1305.29,2230.46L-1305.29,2125.15Z" transform="translate(-3.205 3.15)" class="color40c3fd svgShape"></path></g></g><path fill="#10243e" d="M750.088,2058.08C747.929,2059.33 745.27,2059.33 743.112,2058.08C740.954,2056.84 739.624,2054.53 739.624,2052.04C739.624,2042.02 739.624,2027.98 739.624,2018.82C739.624,2012.99 742.474,2007.53 747.256,2004.2C781.15,1980.58 916.379,1886.36 916.379,1886.36C916.379,1886.36 947.141,1851.49 955.968,1841.48C957.519,1839.72 959.346,1838.23 961.376,1837.06C966.73,1833.97 978.007,1827.45 986.364,1822.63C988.473,1821.41 991.072,1821.41 993.181,1822.63C995.29,1823.85 996.59,1826.1 996.59,1828.53C996.59,1848.68 996.59,1889.25 996.59,1907.05C996.59,1912.44 993.714,1917.42 989.045,1920.12C952.36,1941.3 792.664,2033.5 750.088,2058.08Z" transform="translate(4972.59 -1275.03)" class="color10243e svgShape"></path><g transform="translate(-1743.81 -165.58) scale(1.30203)" fill="#000000" class="color000 svgShape"><g transform="translate(658.765 33.84) scale(.89098)" fill="#000000" class="color000 svgShape"><path fill="#daddf3" d="M872.266,1960.09L871.512,1955.96L873.143,1956.14C873.853,1954.85 874.986,1953.65 876.553,1952.6C882.963,1948.33 894.211,1948.34 901.654,1952.64L910.397,1957.69C911.915,1958.57 913.158,1959.55 914.121,1960.6L915.755,1960.78L916.067,1963.65C917.384,1967.03 916.166,1970.62 912.269,1973.22C905.859,1977.5 894.612,1977.48 887.168,1973.19L878.425,1968.14C874.582,1965.92 872.499,1962.99 872.266,1960.09Z" transform="translate(4800 -1374.67)" class="colore1e3ee svgShape"></path><path fill="#f2f3f7" d="M-1384.03,2128.28C-1384.03,2121.34 -1388.19,2115.7 -1393.31,2115.7C-1398.43,2115.7 -1402.58,2121.34 -1402.58,2128.28L-1402.58,2136.43C-1402.58,2143.36 -1398.43,2148.99 -1393.31,2148.99C-1388.19,2148.99 -1384.03,2143.36 -1384.03,2136.43L-1384.03,2128.28Z" transform="matrix(1.25228 -.83547 1.07287 .61942 5150.65 -1901.37)" class="colorf2f3f7 svgShape"></path></g><g transform="translate(633.783 51.245) scale(.89098)" fill="#000000" class="color000 svgShape"><path fill="#daddf3" d="M872.266,1960.09L871.512,1955.96L873.143,1956.14C873.853,1954.85 874.986,1953.65 876.553,1952.6C882.963,1948.33 894.211,1948.34 901.654,1952.64L910.397,1957.69C911.915,1958.57 913.158,1959.55 914.121,1960.6L915.755,1960.78L916.067,1963.65C917.384,1967.03 916.166,1970.62 912.269,1973.22C905.859,1977.5 894.612,1977.48 887.168,1973.19L878.425,1968.14C874.582,1965.92 872.499,1962.99 872.266,1960.09Z" transform="translate(4800 -1374.67)" class="colore1e3ee svgShape"></path><path fill="#f2f3f7" d="M-1384.03,2128.28C-1384.03,2121.34 -1388.19,2115.7 -1393.31,2115.7C-1398.43,2115.7 -1402.58,2121.34 -1402.58,2128.28L-1402.58,2136.43C-1402.58,2143.36 -1398.43,2148.99 -1393.31,2148.99C-1388.19,2148.99 -1384.03,2143.36 -1384.03,2136.43L-1384.03,2128.28Z" transform="matrix(1.25228 -.83547 1.07287 .61942 5150.65 -1901.37)" class="colorf2f3f7 svgShape"></path></g><g transform="translate(608.801 68.65) scale(.89098)" fill="#000000" class="color000 svgShape"><path fill="#daddf3" d="M872.266,1960.09L871.512,1955.96L873.143,1956.14C873.853,1954.85 874.986,1953.65 876.553,1952.6C882.963,1948.33 894.211,1948.34 901.654,1952.64L910.397,1957.69C911.915,1958.57 913.158,1959.55 914.121,1960.6L915.755,1960.78L916.067,1963.65C917.384,1967.03 916.166,1970.62 912.269,1973.22C905.859,1977.5 894.612,1977.48 887.168,1973.19L878.425,1968.14C874.582,1965.92 872.499,1962.99 872.266,1960.09Z" transform="translate(4800 -1374.67)" class="colore1e3ee svgShape"></path><path fill="#f2f3f7" d="M-1384.03,2128.28C-1384.03,2121.34 -1388.19,2115.7 -1393.31,2115.7C-1398.43,2115.7 -1402.58,2121.34 -1402.58,2128.28L-1402.58,2136.43C-1402.58,2143.36 -1398.43,2148.99 -1393.31,2148.99C-1388.19,2148.99 -1384.03,2143.36 -1384.03,2136.43L-1384.03,2128.28Z" transform="matrix(1.25228 -.83547 1.07287 .61942 5150.65 -1901.37)" class="colorf2f3f7 svgShape"></path></g><g transform="translate(583.818 86.055) scale(.89098)" fill="#000000" class="color000 svgShape"><path fill="#daddf3" d="M872.266,1960.09L871.512,1955.96L873.143,1956.14C873.853,1954.85 874.986,1953.65 876.553,1952.6C882.963,1948.33 894.211,1948.34 901.654,1952.64L910.397,1957.69C911.915,1958.57 913.158,1959.55 914.121,1960.6L915.755,1960.78L916.067,1963.65C917.384,1967.03 916.166,1970.62 912.269,1973.22C905.859,1977.5 894.612,1977.48 887.168,1973.19L878.425,1968.14C874.582,1965.92 872.499,1962.99 872.266,1960.09Z" transform="translate(4800 -1374.67)" class="colore1e3ee svgShape"></path><path fill="#f2f3f7" d="M-1384.03,2128.28C-1384.03,2121.34 -1388.19,2115.7 -1393.31,2115.7C-1398.43,2115.7 -1402.58,2121.34 -1402.58,2128.28L-1402.58,2136.43C-1402.58,2143.36 -1398.43,2148.99 -1393.31,2148.99C-1388.19,2148.99 -1384.03,2143.36 -1384.03,2136.43L-1384.03,2128.28Z" transform="matrix(1.25228 -.83547 1.07287 .61942 5150.65 -1901.37)" class="colorf2f3f7 svgShape"></path></g><g transform="translate(695.947 55.307) scale(.89098)" fill="#000000" class="color000 svgShape"><path fill="#daddf3" d="M872.266,1960.09L871.512,1955.96L873.143,1956.14C873.853,1954.85 874.986,1953.65 876.553,1952.6C882.963,1948.33 894.211,1948.34 901.654,1952.64L910.397,1957.69C911.915,1958.57 913.158,1959.55 914.121,1960.6L915.755,1960.78L916.067,1963.65C917.384,1967.03 916.166,1970.62 912.269,1973.22C905.859,1977.5 894.612,1977.48 887.168,1973.19L878.425,1968.14C874.582,1965.92 872.499,1962.99 872.266,1960.09Z" transform="translate(4800 -1374.67)" class="colore1e3ee svgShape"></path><path fill="#f2f3f7" d="M-1384.03,2128.28C-1384.03,2121.34 -1388.19,2115.7 -1393.31,2115.7C-1398.43,2115.7 -1402.58,2121.34 -1402.58,2128.28L-1402.58,2136.43C-1402.58,2143.36 -1398.43,2148.99 -1393.31,2148.99C-1388.19,2148.99 -1384.03,2143.36 -1384.03,2136.43L-1384.03,2128.28Z" transform="matrix(1.25228 -.83547 1.07287 .61942 5150.65 -1901.37)" class="colorf2f3f7 svgShape"></path></g><g transform="translate(670.965 72.712) scale(.89098)" fill="#000000" class="color000 svgShape"><path fill="#daddf3" d="M872.266,1960.09L871.512,1955.96L873.143,1956.14C873.853,1954.85 874.986,1953.65 876.553,1952.6C882.963,1948.33 894.211,1948.34 901.654,1952.64L910.397,1957.69C911.915,1958.57 913.158,1959.55 914.121,1960.6L915.755,1960.78L916.067,1963.65C917.384,1967.03 916.166,1970.62 912.269,1973.22C905.859,1977.5 894.612,1977.48 887.168,1973.19L878.425,1968.14C874.582,1965.92 872.499,1962.99 872.266,1960.09Z" transform="translate(4800 -1374.67)" class="colore1e3ee svgShape"></path><path fill="#f2f3f7" d="M-1384.03,2128.28C-1384.03,2121.34 -1388.19,2115.7 -1393.31,2115.7C-1398.43,2115.7 -1402.58,2121.34 -1402.58,2128.28L-1402.58,2136.43C-1402.58,2143.36 -1398.43,2148.99 -1393.31,2148.99C-1388.19,2148.99 -1384.03,2143.36 -1384.03,2136.43L-1384.03,2128.28Z" transform="matrix(1.25228 -.83547 1.07287 .61942 5150.65 -1901.37)" class="colorf2f3f7 svgShape"></path></g><g transform="translate(645.983 90.117) scale(.89098)" fill="#000000" class="color000 svgShape"><path fill="#daddf3" d="M872.266,1960.09L871.512,1955.96L873.143,1956.14C873.853,1954.85 874.986,1953.65 876.553,1952.6C882.963,1948.33 894.211,1948.34 901.654,1952.64L910.397,1957.69C911.915,1958.57 913.158,1959.55 914.121,1960.6L915.755,1960.78L916.067,1963.65C917.384,1967.03 916.166,1970.62 912.269,1973.22C905.859,1977.5 894.612,1977.48 887.168,1973.19L878.425,1968.14C874.582,1965.92 872.499,1962.99 872.266,1960.09Z" transform="translate(4800 -1374.67)" class="colore1e3ee svgShape"></path><path fill="#f2f3f7" d="M-1384.03,2128.28C-1384.03,2121.34 -1388.19,2115.7 -1393.31,2115.7C-1398.43,2115.7 -1402.58,2121.34 -1402.58,2128.28L-1402.58,2136.43C-1402.58,2143.36 -1398.43,2148.99 -1393.31,2148.99C-1388.19,2148.99 -1384.03,2143.36 -1384.03,2136.43L-1384.03,2128.28Z" transform="matrix(1.25228 -.83547 1.07287 .61942 5150.65 -1901.37)" class="colorf2f3f7 svgShape"></path></g><g transform="translate(621 107.522) scale(.89098)" fill="#000000" class="color000 svgShape"><path fill="#daddf3" d="M872.266,1960.09L871.512,1955.96L873.143,1956.14C873.853,1954.85 874.986,1953.65 876.553,1952.6C882.963,1948.33 894.211,1948.34 901.654,1952.64L910.397,1957.69C911.915,1958.57 913.158,1959.55 914.121,1960.6L915.755,1960.78L916.067,1963.65C917.384,1967.03 916.166,1970.62 912.269,1973.22C905.859,1977.5 894.612,1977.48 887.168,1973.19L878.425,1968.14C874.582,1965.92 872.499,1962.99 872.266,1960.09Z" transform="translate(4800 -1374.67)" class="colore1e3ee svgShape"></path><path fill="#f2f3f7" d="M-1384.03,2128.28C-1384.03,2121.34 -1388.19,2115.7 -1393.31,2115.7C-1398.43,2115.7 -1402.58,2121.34 -1402.58,2128.28L-1402.58,2136.43C-1402.58,2143.36 -1398.43,2148.99 -1393.31,2148.99C-1388.19,2148.99 -1384.03,2143.36 -1384.03,2136.43L-1384.03,2128.28Z" transform="matrix(1.25228 -.83547 1.07287 .61942 5150.65 -1901.37)" class="colorf2f3f7 svgShape"></path></g><g transform="translate(733.13 76.774) scale(.89098)" fill="#000000" class="color000 svgShape"><path fill="#daddf3" d="M872.266,1960.09L871.512,1955.96L873.143,1956.14C873.853,1954.85 874.986,1953.65 876.553,1952.6C882.963,1948.33 894.211,1948.34 901.654,1952.64L910.397,1957.69C911.915,1958.57 913.158,1959.55 914.121,1960.6L915.755,1960.78L916.067,1963.65C917.384,1967.03 916.166,1970.62 912.269,1973.22C905.859,1977.5 894.612,1977.48 887.168,1973.19L878.425,1968.14C874.582,1965.92 872.499,1962.99 872.266,1960.09Z" transform="translate(4800 -1374.67)" class="colore1e3ee svgShape"></path><path fill="#f2f3f7" d="M-1384.03,2128.28C-1384.03,2121.34 -1388.19,2115.7 -1393.31,2115.7C-1398.43,2115.7 -1402.58,2121.34 -1402.58,2128.28L-1402.58,2136.43C-1402.58,2143.36 -1398.43,2148.99 -1393.31,2148.99C-1388.19,2148.99 -1384.03,2143.36 -1384.03,2136.43L-1384.03,2128.28Z" transform="matrix(1.25228 -.83547 1.07287 .61942 5150.65 -1901.37)" class="colorf2f3f7 svgShape"></path></g><g transform="translate(708.147 94.179) scale(.89098)" fill="#000000" class="color000 svgShape"><path fill="#daddf3" d="M872.266,1960.09L871.512,1955.96L873.143,1956.14C873.853,1954.85 874.986,1953.65 876.553,1952.6C882.963,1948.33 894.211,1948.34 901.654,1952.64L910.397,1957.69C911.915,1958.57 913.158,1959.55 914.121,1960.6L915.755,1960.78L916.067,1963.65C917.384,1967.03 916.166,1970.62 912.269,1973.22C905.859,1977.5 894.612,1977.48 887.168,1973.19L878.425,1968.14C874.582,1965.92 872.499,1962.99 872.266,1960.09Z" transform="translate(4800 -1374.67)" class="colore1e3ee svgShape"></path><path fill="#f2f3f7" d="M-1384.03,2128.28C-1384.03,2121.34 -1388.19,2115.7 -1393.31,2115.7C-1398.43,2115.7 -1402.58,2121.34 -1402.58,2128.28L-1402.58,2136.43C-1402.58,2143.36 -1398.43,2148.99 -1393.31,2148.99C-1388.19,2148.99 -1384.03,2143.36 -1384.03,2136.43L-1384.03,2128.28Z" transform="matrix(1.25228 -.83547 1.07287 .61942 5150.65 -1901.37)" class="colorf2f3f7 svgShape"></path></g><g transform="translate(658.182 128.989) scale(.89098)" fill="#000000" class="color000 svgShape"><path fill="#40c3fd" d="M976.611,2010.73C977.45,2013.83 976.346,2017.46 973.738,2018.97L947.984,2036.75C947.887,2036.82 947.788,2036.89 947.689,2036.96C941.978,2040.77 931.957,2040.75 925.325,2036.92L917.535,2032.43C914.111,2030.45 912.06,2027.95 911.853,2025.36L910.699,2021.22L912.829,2021.74C913.461,2020.59 914.471,2019.52 915.867,2018.59C921.579,2014.77 931.6,2014.79 938.232,2018.62L945.432,2022.78L950.471,2019.61C950.417,2019.58 950.362,2019.55 950.308,2019.52L942.518,2015.02C939.093,2013.04 937.238,2010.43 937.03,2007.85L936.358,2004.17L937.811,2004.33C938.444,2003.18 939.454,2002.11 940.85,2001.18C946.561,1997.37 956.582,1997.38 963.214,2001.21L971.004,2005.71C972.356,2006.49 973.464,2007.37 974.322,2008.31L976.135,2008.93L976.611,2010.73Z" transform="translate(4648.62 -1687.65) scale(1.12236)" class="color40c3fd svgShape"></path><path fill="#c2cdd2" d="M-1384.03,2128.4C-1384.03,2121.39 -1385.96,2115.7 -1388.33,2115.7L-1398.28,2115.7C-1400.66,2115.7 -1402.58,2121.39 -1402.58,2128.4L-1402.58,2136.3C-1402.58,2143.31 -1400.66,2148.99 -1398.28,2148.99L-1388.33,2148.99C-1385.96,2148.99 -1384.03,2143.31 -1384.03,2136.3L-1384.03,2128.4Z" transform="matrix(2.79977 -1.86789 1.10093 .63562 7260.84 -3384.24)" class="color88daff svgShape"></path></g></g></g><g transform="translate(8.406 6.957)" fill="#000000" class="color000 svgShape"><g transform="translate(44.93 384.477)" fill="#000000" class="color000 svgShape"><rect width="179.303" height="85.373" x="-1258.54" y="1923.99" fill="#10243e" transform="matrix(.86603 -.5 .987 .56984 4825.02 -1360.23)" class="color10243e svgShape"></rect><rect width="75.614" height="25.707" x="984.78" y="1089.93" fill="#c2cdd2" transform="matrix(1.11437 .64338 0 1.1547 4536.65 -1526.72)" class="color88daff svgShape"></rect><rect width="179.303" height="25.707" x="1060.39" y="2008.26" fill="#40c3fd" transform="rotate(-30 -165.162 -9644.255) skewX(-30)" class="color40c3fd svgShape"></rect><rect width="179.303" height="25.707" x="1060.39" y="2008.26" fill="#daddf3" transform="matrix(.1018 -.05877 0 1.0982 5679.71 -1767.66)" class="colore1e3ee svgShape"></rect><rect width="20.971" height="70.479" x="-1163.19" y="1937.78" fill="#f2f3f7" transform="matrix(.86603 -.5 1.27477 .73599 4235.03 -1684.21)" class="colorf2f3f7 svgShape"></rect></g><g transform="translate(36.846 354.901)" fill="#000000" class="color000 svgShape"><rect width="179.303" height="85.373" x="-1258.54" y="1923.99" fill="#40c3fd" transform="matrix(.86603 -.5 .987 .56984 4825.02 -1360.23)" class="color40c3fd svgShape"></rect><path fill="#10243e" d="M-1079.24,1923.99L-1253.16,1923.99C-1260.31,1953 -1255,1980.96 -1253.16,2009.05L-1079.24,2009.37L-1079.24,1923.99Z" transform="matrix(.84632 -.48862 1.00173 .57835 4775.4 -1364.31)" class="color10243e svgShape"></path><rect width="75.614" height="25.707" x="984.78" y="1089.93" fill="#c2cdd2" transform="matrix(1.11437 .64338 0 1.1547 4536.65 -1526.72)" class="color88daff svgShape"></rect><rect width="179.303" height="25.707" x="1060.39" y="2008.26" fill="#40c3fd" transform="rotate(-30 -165.162 -9644.255) skewX(-30)" class="color40c3fd svgShape"></rect><rect width="179.303" height="25.707" x="1060.39" y="2008.26" fill="#daddf3" transform="matrix(.1018 -.05877 0 1.0982 5679.71 -1767.66)" class="colore1e3ee svgShape"></rect><path fill="#c2cdd2" d="M-1075.07,1916.7C-1134.5,1923.74 -1187.88,1924.26 -1241.19,1906.24C-1250.84,1934.4 -1249.79,1962.49 -1248.08,1990.59C-1201.59,2003.76 -1142.89,2006 -1075.07,1998.56L-1075.07,1916.7Z" transform="matrix(.86603 -.5 1.0771 .62186 4652.01 -1460.12)" class="color88daff svgShape"></path><ellipse cx="-1185.21" cy="1994.36" fill="#40c3fd" rx="28.644" ry="24.806" transform="matrix(1.0441 -.60281 1.20563 .69607 4584.93 -1758.88)" class="color40c3fd svgShape"></ellipse><path fill="#40c3fd" d="M909.618,1733.34C910.069,1733.99 892.039,1742.45 886.483,1743.39L891.719,1748.11C891.719,1748.11 905.468,1743.49 915.625,1736.81L909.618,1733.34Z" transform="translate(4800.91 -1372.72)" class="color40c3fd svgShape"></path><path fill="#40c3fd" d="M907.1,1729.74C907.551,1730.38 892.3,1740.81 886.483,1743.39L891.719,1748.11C891.719,1748.11 904.317,1742.42 913.107,1733.2L907.1,1729.74Z" transform="translate(4901.17 -1425.42)" class="color40c3fd svgShape"></path><rect width="20.971" height="70.479" x="-1163.19" y="1937.78" fill="#f2f3f7" transform="matrix(.86603 -.5 1.27477 .73599 4235.03 -1684.21)" class="colorf2f3f7 svgShape"></rect></g></g><g transform="translate(4754.28 -223.881) scale(1.26014)" fill="#000000" class="color000 svgShape"><path fill="#af1aa8" d="M-377.844,1056.61C-369.117,1056.61 -374.298,1070.22 -369.535,1075.91C-366.407,1079.64 -351.645,1074.33 -351.645,1079.29C-351.645,1091.82 -363.384,1101.98 -377.844,1101.98C-392.303,1101.98 -404.042,1091.82 -404.042,1079.29C-404.042,1066.77 -392.303,1056.61 -377.844,1056.61Z" transform="rotate(-30 10.238 92.34) skewX(30)" class="color7887da svgShape"></path><path fill="#af1aa8" d="M681.492,821.249L707.274,832.84L675.194,829.548L675.194,821.249L681.492,821.249ZM739.354,821.381L739.354,830.016L717.456,838.006L732.653,821.381L739.354,821.381Z" class="color7887da svgShape"></path><ellipse cx="-377.844" cy="1079.29" fill="#abb3db" rx="26.198" ry="22.689" transform="rotate(-30 -5.266 88.186) skewX(30)" class="colorabb3db svgShape"></ellipse><g transform="matrix(.70048 -.40442 .80885 .46699 98.963 164.409)" fill="#000000" class="color000 svgShape"><ellipse cx="-377.844" cy="1079.29" fill="#af1aa8" rx="26.198" ry="22.689" class="color7887da svgShape"></ellipse><clipPath id="c"><ellipse cx="-377.844" cy="1079.29" rx="26.198" ry="22.689" fill="#000000" class="color000 svgShape"></ellipse></clipPath><g clip-path="url(#c)" fill="#000000" class="color000 svgShape"><ellipse cx="-377.844" cy="1079.29" fill="#abb3db" rx="26.198" ry="22.689" transform="translate(-2.961 2.565)" class="colorabb3db svgShape"></ellipse></g></g></g><g transform="translate(4757.09 -236.021) scale(1.26014)" fill="#000000" class="color000 svgShape"><path fill="#af1aa8" d="M-377.844,1056.61C-369.117,1056.61 -374.298,1070.22 -369.535,1075.91C-366.407,1079.64 -351.645,1074.33 -351.645,1079.29C-351.645,1091.82 -363.384,1101.98 -377.844,1101.98C-392.303,1101.98 -404.042,1091.82 -404.042,1079.29C-404.042,1066.77 -392.303,1056.61 -377.844,1056.61Z" transform="rotate(-30 10.238 92.34) skewX(30)" class="color7887da svgShape"></path><path fill="#af1aa8" d="M681.492,821.249L707.274,832.84L675.194,829.548L675.194,821.249L681.492,821.249ZM739.354,821.381L739.354,830.016L717.456,838.006L732.653,821.381L739.354,821.381Z" class="color7887da svgShape"></path><ellipse cx="-377.844" cy="1079.29" fill="#abb3db" rx="26.198" ry="22.689" transform="rotate(-30 -5.266 88.186) skewX(30)" class="colorabb3db svgShape"></ellipse><g transform="matrix(.70048 -.40442 .80885 .46699 98.963 164.409)" fill="#000000" class="color000 svgShape"><ellipse cx="-377.844" cy="1079.29" fill="#af1aa8" rx="26.198" ry="22.689" class="color7887da svgShape"></ellipse><clipPath id="d"><ellipse cx="-377.844" cy="1079.29" rx="26.198" ry="22.689" fill="#000000" class="color000 svgShape"></ellipse></clipPath><g clip-path="url(#d)" fill="#000000" class="color000 svgShape"><ellipse cx="-377.844" cy="1079.29" fill="#abb3db" rx="26.198" ry="22.689" transform="translate(-2.961 2.565)" class="colorabb3db svgShape"></ellipse></g></g></g><g transform="translate(4754.28 -247.786) scale(1.26014)" fill="#000000" class="color000 svgShape"><path fill="#af1aa8" d="M-377.844,1056.61C-369.117,1056.61 -374.298,1070.22 -369.535,1075.91C-366.407,1079.64 -351.645,1074.33 -351.645,1079.29C-351.645,1091.82 -363.384,1101.98 -377.844,1101.98C-392.303,1101.98 -404.042,1091.82 -404.042,1079.29C-404.042,1066.77 -392.303,1056.61 -377.844,1056.61Z" transform="rotate(-30 10.238 92.34) skewX(30)" class="color7887da svgShape"></path><path fill="#af1aa8" d="M681.492,821.249L707.274,832.84L675.194,829.548L675.194,821.249L681.492,821.249ZM739.354,821.381L739.354,830.016L717.456,838.006L732.653,821.381L739.354,821.381Z" class="color7887da svgShape"></path><ellipse cx="-377.844" cy="1079.29" fill="#abb3db" rx="26.198" ry="22.689" transform="rotate(-30 -5.266 88.186) skewX(30)" class="colorabb3db svgShape"></ellipse><g transform="matrix(.70048 -.40442 .80885 .46699 98.963 164.409)" fill="#000000" class="color000 svgShape"><ellipse cx="-377.844" cy="1079.29" fill="#af1aa8" rx="26.198" ry="22.689" class="color7887da svgShape"></ellipse><clipPath id="e"><ellipse cx="-377.844" cy="1079.29" rx="26.198" ry="22.689" fill="#000000" class="color000 svgShape"></ellipse></clipPath><g clip-path="url(#e)" fill="#000000" class="color000 svgShape"><ellipse cx="-377.844" cy="1079.29" fill="#abb3db" rx="26.198" ry="22.689" transform="translate(-2.961 2.565)" class="colorabb3db svgShape"></ellipse></g></g></g><g transform="translate(4827.41 -198.443) scale(1.26014)" fill="#000000" class="color000 svgShape"><path fill="#af1aa8" d="M-377.844,1056.61C-369.117,1056.61 -374.298,1070.22 -369.535,1075.91C-366.407,1079.64 -351.645,1074.33 -351.645,1079.29C-351.645,1091.82 -363.384,1101.98 -377.844,1101.98C-392.303,1101.98 -404.042,1091.82 -404.042,1079.29C-404.042,1066.77 -392.303,1056.61 -377.844,1056.61Z" transform="rotate(-30 10.238 92.34) skewX(30)" class="color7887da svgShape"></path><path fill="#af1aa8" d="M681.492,821.249L707.274,832.84L675.194,829.548L675.194,821.249L681.492,821.249ZM739.354,821.381L739.354,830.016L717.456,838.006L732.653,821.381L739.354,821.381Z" class="color7887da svgShape"></path><ellipse cx="-377.844" cy="1079.29" fill="#abb3db" rx="26.198" ry="22.689" transform="rotate(-30 -5.266 88.186) skewX(30)" class="colorabb3db svgShape"></ellipse><g transform="matrix(.70048 -.40442 .80885 .46699 98.963 164.409)" fill="#000000" class="color000 svgShape"><ellipse cx="-377.844" cy="1079.29" fill="#af1aa8" rx="26.198" ry="22.689" class="color7887da svgShape"></ellipse><clipPath id="f"><ellipse cx="-377.844" cy="1079.29" rx="26.198" ry="22.689" fill="#000000" class="color000 svgShape"></ellipse></clipPath><g clip-path="url(#f)" fill="#000000" class="color000 svgShape"><ellipse cx="-377.844" cy="1079.29" fill="#abb3db" rx="26.198" ry="22.689" transform="translate(-2.961 2.565)" class="colorabb3db svgShape"></ellipse></g></g></g><g transform="translate(4830.92 -211.569) scale(1.26014)" fill="#000000" class="color000 svgShape"><path fill="#af1aa8" d="M-377.844,1056.61C-369.117,1056.61 -374.298,1070.22 -369.535,1075.91C-366.407,1079.64 -351.645,1074.33 -351.645,1079.29C-351.645,1091.82 -363.384,1101.98 -377.844,1101.98C-392.303,1101.98 -404.042,1091.82 -404.042,1079.29C-404.042,1066.77 -392.303,1056.61 -377.844,1056.61Z" transform="rotate(-30 10.238 92.34) skewX(30)" class="color7887da svgShape"></path><path fill="#af1aa8" d="M681.492,821.249L707.274,832.84L675.194,829.548L675.194,821.249L681.492,821.249ZM739.354,821.381L739.354,830.016L717.456,838.006L732.653,821.381L739.354,821.381Z" class="color7887da svgShape"></path><ellipse cx="-377.844" cy="1079.29" fill="#abb3db" rx="26.198" ry="22.689" transform="rotate(-30 -5.266 88.186) skewX(30)" class="colorabb3db svgShape"></ellipse><g transform="matrix(.70048 -.40442 .80885 .46699 98.963 164.409)" fill="#000000" class="color000 svgShape"><ellipse cx="-377.844" cy="1079.29" fill="#af1aa8" rx="26.198" ry="22.689" class="color7887da svgShape"></ellipse><clipPath id="g"><ellipse cx="-377.844" cy="1079.29" rx="26.198" ry="22.689" fill="#000000" class="color000 svgShape"></ellipse></clipPath><g clip-path="url(#g)" fill="#000000" class="color000 svgShape"><ellipse cx="-377.844" cy="1079.29" fill="#abb3db" rx="26.198" ry="22.689" transform="translate(-2.961 2.565)" class="colorabb3db svgShape"></ellipse></g></g></g></g><g transform="translate(4721.48 -253.866) scale(1.42681)" fill="#000000" class="color000 svgShape"><g transform="translate(-169.25 -2.377) scale(.97792)" fill="#000000" class="color000 svgShape"><path fill="#daddf3" d="M-571.141,1064.45C-525.753,1062.68 -507.043,1075.53 -513.537,1113.28C-518.51,1142.19 -469.011,1151.64 -488.834,1170.1C-549.18,1226.31 -568.147,1157.31 -568.147,1122.32C-568.147,1087.33 -612.437,1066.06 -571.141,1064.45Z" transform="matrix(.66388 -.38329 .88074 .5085 62.216 37.297)" class="colore1e3ee svgShape"></path><path fill="#10243e" d="M736.698,792.702C736.698,792.702 770.343,791.121 784.212,786.797C798.081,782.472 802.68,797.544 785.638,809.198C768.596,820.852 747.003,827.8 741.229,821.767C735.455,815.735 736.698,792.702 736.698,792.702Z" transform="matrix(.9355 0 0 .91353 39.548 76.576)" class="color10243e svgShape"></path><g transform="translate(1.803 24.372)" fill="#000000" class="color000 svgShape"><path fill="#020325" d="M734.631,606.133C734.631,606.133 759.675,729.247 761.565,775.326C761.565,775.326 740.975,801.029 707.097,785.557C707.097,785.557 694.729,651.511 680.982,614.273C680.982,614.273 698.619,595.352 734.631,606.133Z" class="color4b61dc svgShape"></path><clipPath id="h"><path d="M734.631,606.133C734.631,606.133 759.675,729.247 761.565,775.326C761.565,775.326 740.975,801.029 707.097,785.557C707.097,785.557 694.729,651.511 680.982,614.273C680.982,614.273 698.619,595.352 734.631,606.133Z" fill="#000000" class="color000 svgShape"></path></clipPath><g clip-path="url(#h)" fill="#000000" class="color000 svgShape"><path fill="#10243e" d="M743.106,647.163L745.047,659.043C745.047,659.043 718.723,684.02 686.1,670.931L682.786,649.636L743.106,647.163Z" transform="translate(-1.803 -24.372)" class="color10243e svgShape"></path></g></g></g><g transform="rotate(14.561 677.35 -278.978) scale(.97792)" fill="#000000" class="color000 svgShape"><path fill="#10243e" d="M736.698,792.702C736.698,792.702 770.343,791.121 784.212,786.797C798.081,782.472 802.68,797.544 785.638,809.198C768.596,820.852 747.003,827.8 741.229,821.767C735.455,815.735 736.698,792.702 736.698,792.702Z" transform="rotate(-7.243 1475.532 236.879) scale(.88992)" class="color10243e svgShape"></path><g transform="translate(1.803 24.372)" fill="#000000" class="color000 svgShape"><path fill="#020325" d="M734.631,606.133C734.631,606.133 756.723,723.535 758.855,769.276C758.855,769.276 742.938,792.467 705.489,787.466C705.489,787.466 694.729,651.511 680.982,614.273C680.982,614.273 698.619,595.352 734.631,606.133Z" class="color4b61dc svgShape"></path><clipPath id="i"><path d="M734.631,606.133C734.631,606.133 756.723,723.535 758.855,769.276C758.855,769.276 742.938,792.467 705.489,787.466C705.489,787.466 694.729,651.511 680.982,614.273C680.982,614.273 698.619,595.352 734.631,606.133Z" fill="#000000" class="color000 svgShape"></path></clipPath><g clip-path="url(#i)" fill="#000000" class="color000 svgShape"><path fill="#10243e" d="M743.106,647.163L752.477,672.696C752.477,672.696 730.331,699.117 686.1,670.931L682.786,649.636L743.106,647.163Z" transform="translate(-1.803 -24.372)" class="color10243e svgShape"></path></g></g></g><circle cx="542.636" cy="465.485" r="45.128" fill="#c2cdd2" transform="rotate(13.371 540.186 554.256) scale(.99429)" class="color88daff svgShape"></circle><path fill="#c2cdd2" d="M779.395,423.19C779.395,423.19 790.293,417.298 795.504,422.034C800.715,426.77 782.333,440.987 782.333,440.987L779.395,423.19Z" transform="rotate(13.372 -12.885 404.303) scale(.76696)" class="color88daff svgShape"></path><path fill="#af1aa8" d="M693.584,496.165C707.105,505.453 707.503,524.39 707.619,543.332C707.71,558.206 695.072,585.398 695.072,585.398L707.072,643.897C707.072,643.897 601.273,681.601 536.374,599.787L564.548,544.804L589.13,466.608C589.13,466.608 676.039,484.115 693.584,496.165Z" transform="translate(-33.405 79.495) scale(.8613)" class="color7887da svgShape"></path><g transform="rotate(17.99 551.692 568.959)" fill="#000000" class="color000 svgShape"><path fill="#c2cdd2" d="M824.522,573.568C824.522,573.568 808.385,572.911 803.05,559.667C803.05,559.667 806.279,542.429 814.434,532.422C822.588,522.415 828.13,522.905 838.448,522.412C848.767,521.919 847.535,530.555 840.907,531.491C835.329,532.278 831.124,533.869 831.434,535.379C831.434,535.379 838.057,535.326 844.093,541.416C850.129,547.505 841.811,555.505 841.811,555.505C841.811,555.505 846.528,563.786 836.829,566.027C836.829,566.027 835.54,572.233 824.522,573.568Z" transform="rotate(35.672 576.34 424.325) scale(.8613)" class="color88daff svgShape"></path><path fill="#af1aa8" d="M555.223,522.837C555.223,522.837 591.787,523.594 607.073,521.614C614.689,520.627 622.793,510.597 633.732,496.964C633.732,496.964 645.591,485.662 661.566,495.28C671.648,501.35 676.835,516.004 670.569,528.005C670.569,528.005 652.167,544.47 632.691,555.887C612.14,567.936 580.334,562.339 554.981,556.241C554.981,556.241 542.576,537.252 555.223,522.837Z" transform="rotate(34.001 575.143 507.805)" class="color7887da svgShape"></path></g><path fill="#10243e" d="M766.365,566.594C766.758,564.687 756.371,562.73 748.445,558.944C742.082,555.904 730.574,549.711 726.153,545.683C726.153,545.683 731.564,564.718 745.277,570.587C758.786,576.369 765.753,569.567 766.365,566.594Z" transform="rotate(32.435 464.605 375.122) scale(.8613)" class="color10243e svgShape"></path><path fill="#10243e" d="M504.311,430.453C504.311,430.453 494.596,435.101 490.798,448.802C487,462.503 482.597,474.879 470.846,476.147C459.094,477.415 447.309,494.953 452.832,507.667C452.832,507.667 431.48,509.052 433.18,535.61C434.88,562.167 458.539,566.525 471.146,561.393C471.146,561.393 482.584,586.726 507.678,573.487C507.678,573.487 540.378,585.777 548.454,561.317C548.454,561.317 581.069,555.081 569.71,528.304C569.71,528.304 586.94,518.056 577.724,500.542C568.509,483.028 571.741,474.765 571.741,474.765C571.741,474.765 582.382,467.847 580.542,453.899C580.542,453.899 610.945,440.503 603.154,418.315C595.362,396.127 568.123,389.755 557.558,411.353C553.526,399.624 514.802,396.321 504.311,430.453Z" transform="rotate(13.372 580.401 449.47)" class="color10243e svgShape"></path></g><g transform="rotate(45 4441.097 3933.398) scale(1.39504)" fill="#000000" class="color000 svgShape"><circle cx="2144.31" cy="280.09" r="73.208" fill="#020325" transform="translate(-18.874 -21.204)" class="color4b61dc svgShape"></circle><path fill="#020325" d="M2121.8,306.453C2123.12,303.438 2125.69,301.556 2128.48,301.556C2131.27,301.556 2133.84,303.438 2135.16,306.453C2144.91,328.716 2161.89,367.49 2161.89,367.49L2095.06,367.49C2095.06,367.49 2112.05,328.716 2121.8,306.453Z" transform="matrix(-1 0 0 -.81615 4253.92 599.916)" class="color4b61dc svgShape"></path><g transform="translate(-358.718 -41.172) scale(1.17012)" fill="#000000" class="color000 svgShape"><path fill="#f2f3f7" d="M1066.7 1634.39L1066.7 1650.64 1087.93 1650.64 1045.47 1703.59 1003.01 1650.64 1024.24 1650.64 1024.24 1634.39C1030.71 1637.33 1037.9 1638.96 1045.47 1638.96 1053.03 1638.96 1060.22 1637.33 1066.7 1634.39zM1045.47 1544.98C1068.9 1544.98 1087.93 1564.01 1087.93 1587.44 1087.93 1610.88 1068.9 1629.9 1045.47 1629.9 1022.03 1629.9 1003.01 1610.88 1003.01 1587.44 1003.01 1564.01 1022.03 1544.98 1045.47 1544.98zM1042.22 1590.9L1042.22 1600.47C1041.21 1600.34 1040.18 1600.14 1039.14 1599.85 1037.31 1599.35 1035.49 1598.57 1033.66 1597.53L1030.86 1604.41C1032.69 1605.57 1034.79 1606.44 1037.18 1607.02 1038.84 1607.42 1040.52 1607.68 1042.22 1607.8L1042.22 1613.93 1047.82 1613.93 1047.82 1607.71C1050.06 1607.47 1052.01 1606.98 1053.67 1606.23 1056.11 1605.13 1057.94 1603.66 1059.15 1601.81 1060.37 1599.96 1060.97 1597.92 1060.97 1595.68 1060.97 1593.59 1060.55 1591.88 1059.71 1590.53 1058.87 1589.19 1057.78 1588.11 1056.44 1587.29 1055.09 1586.46 1053.61 1585.79 1051.99 1585.27 1050.6 1584.82 1049.21 1584.44 1047.82 1584.11L1047.82 1574.74C1049.46 1574.89 1051.1 1575.24 1052.71 1575.78 1055.01 1576.55 1057 1577.53 1058.68 1578.72L1061.76 1571.89C1060 1570.55 1057.69 1569.46 1054.81 1568.62 1052.56 1567.96 1050.23 1567.56 1047.82 1567.42L1047.82 1561.31 1042.22 1561.31 1042.22 1567.55C1040.05 1567.8 1038.15 1568.3 1036.54 1569.04 1034.1 1570.16 1032.26 1571.63 1031.03 1573.46 1029.79 1575.29 1029.18 1577.3 1029.18 1579.51 1029.18 1581.56 1029.6 1583.26 1030.44 1584.6 1031.28 1585.94 1032.37 1587.02 1033.71 1587.85 1035.06 1588.67 1036.54 1589.32 1038.16 1589.8 1039.52 1590.21 1040.87 1590.57 1042.22 1590.9zM1042.22 1574.95L1042.22 1582.7C1041.08 1582.33 1040.15 1581.87 1039.42 1581.32 1038.6 1580.71 1038.19 1579.88 1038.19 1578.83 1038.19 1578.01 1038.45 1577.29 1038.97 1576.65 1039.5 1576.02 1040.31 1575.52 1041.41 1575.17 1041.66 1575.09 1041.93 1575.01 1042.22 1574.95zM1047.82 1600.29L1047.82 1592.31C1049.01 1592.67 1049.98 1593.13 1050.73 1593.69 1051.55 1594.31 1051.96 1595.12 1051.96 1596.13 1051.96 1596.99 1051.72 1597.74 1051.23 1598.4 1050.75 1599.05 1049.94 1599.58 1048.83 1599.99 1048.51 1600.11 1048.18 1600.2 1047.82 1600.29z" transform="rotate(-45 686.85 -1442.476) scale(.47925)" class="colorf2f3f7 svgShape"></path></g></g></g></g></svg></g></svg>