<svg xmlns="http://www.w3.org/2000/svg" viewBox="0 0 512 512" id="add-contact"><path d="M488.338 364.956 379.78 324.225c-11.072-4.156-22.639-2.904-32.569 3.525l-36.561 23.679c-6.859 4.443-15.078 4.487-21.984.12-25.64-16.214-49.586-35.402-71.174-57.03l-.011-.011c-21.63-21.59-40.817-45.536-57.029-71.172-4.367-6.908-4.323-15.127.119-21.985l23.681-36.563c6.428-9.931 7.679-21.498 3.523-32.567l-40.73-108.559c-3.893-10.374-12.111-18.318-22.549-21.796-10.438-3.479-21.78-2.052-31.119 3.915L36.553 42.086C7.793 60.462-5.672 93.783 2.25 126.975c21.979 92.107 69.83 176.639 138.317 244.396 67.818 68.549 152.351 116.4 244.457 138.379a81.213 81.213 0 0 0 18.865 2.241c26.471 0 51.146-13.259 66.024-36.544l36.306-56.825c5.966-9.338 7.393-20.68 3.915-31.118-3.478-10.438-11.423-18.656-21.796-22.548zm4.399 45.052-36.306 56.824c-14.654 22.935-41.228 33.67-67.693 27.356-89.198-21.286-171.081-67.646-236.857-134.13C85.458 294.342 39.098 212.459 17.813 123.261c-6.317-26.468 4.421-53.039 27.355-67.692l56.823-36.306c3.371-2.154 7.198-3.258 11.052-3.258 2.148 0 4.306.343 6.395 1.04 5.836 1.945 10.438 6.405 12.627 12.237l40.731 108.56c2.362 6.293 1.679 12.605-1.975 18.25l-23.68 36.561c-7.809 12.058-7.891 27.091-.213 39.234 16.846 26.637 36.777 51.514 59.244 73.94 22.425 22.465 47.302 42.397 73.941 59.245 12.142 7.677 27.175 7.595 39.233-.213l36.56-23.678c5.644-3.655 11.954-4.34 18.252-1.976l108.558 40.731c5.833 2.188 10.294 6.79 12.238 12.626 1.946 5.837 1.138 12.195-2.217 17.446zM391.5 241c66.444 0 120.5-54.056 120.5-120.5S457.944 0 391.5 0 270.999 54.056 270.999 120.5 325.056 241 391.5 241zm0-225C449.121 16 496 62.878 496 120.5S449.121 225 391.5 225c-57.622 0-104.501-46.878-104.501-104.5S333.878 16 391.5 16zm-27.605 132.105v29.323c0 15.222 12.384 27.605 27.605 27.605s27.605-12.384 27.605-27.605v-29.323h29.322c15.222 0 27.605-12.384 27.605-27.605s-12.384-27.605-27.605-27.605h-29.322V63.572c0-15.222-12.384-27.605-27.605-27.605s-27.605 12.384-27.605 27.605v29.322h-29.322c-15.222 0-27.605 12.384-27.605 27.605s12.384 27.605 27.605 27.605h29.322zM322.967 120.5c0-6.399 5.206-11.605 11.605-11.605h37.322a8 8 0 0 0 8-8V63.572c0-6.399 5.206-11.605 11.605-11.605s11.605 5.206 11.605 11.605v37.322a8 8 0 0 0 8 8h37.322c6.399 0 11.605 5.206 11.605 11.605s-5.206 11.605-11.605 11.605h-37.322a8 8 0 0 0-8 8v37.323c0 6.399-5.206 11.605-11.605 11.605s-11.605-5.206-11.605-11.605v-37.323a8 8 0 0 0-8-8h-37.322c-6.399.001-11.605-5.205-11.605-11.604z"></path></svg>