<svg xmlns="http://www.w3.org/2000/svg" viewBox="0 0 64 64" id="address"><path d="M17.378,30.847,31.205,52.581a.942.942,0,0,0,1.59,0L46.621,30.847a.86.86,0,0,0,.047-.084,18.058,18.058,0,0,0,3.561-10.792,18.229,18.229,0,1,0-36.458,0,18.053,18.053,0,0,0,3.558,10.787A.864.864,0,0,0,17.378,30.847ZM32,3.625A16.364,16.364,0,0,1,48.345,19.971a16.188,16.188,0,0,1-3.29,9.8.893.893,0,0,0-.117.208L32,50.321,19.067,29.992a.934.934,0,0,0-.122-.217,16.188,16.188,0,0,1-3.29-9.8A16.364,16.364,0,0,1,32,3.625Z"></path><path d="M40.756 50.939a.942.942 0 0 0-.154 1.878c5.906.485 9.432 1.806 9.432 3.532 0 1.279-6.366 3.767-18.034 3.767s-18.034-2.488-18.034-3.767c0-.822.9-2.812 9.281-3.52a.942.942 0 0 0-.159-1.877c-7.406.626-11.006 2.392-11.006 5.4C12.082 60.232 22.407 62 32 62s19.918-1.768 19.918-5.651C51.918 53.326 48.267 51.556 40.756 50.939zM21.9 23.116h2.5v7.935a.941.941 0 0 0 .942.941H38.657a.941.941 0 0 0 .942-.941V23.116h2.5a2.193 2.193 0 0 0 2.109-1.38 1.831 1.831 0 0 0-.622-2.07l-10.1-8.191a2.436 2.436 0 0 0-2.974 0l-10.1 8.19a1.83 1.83 0 0 0-.622 2.069A2.194 2.194 0 0 0 21.9 23.116zm11.734 6.993h-2.9a.917.917 0 0 0 .185-.531V26.265a1.268 1.268 0 1 1 2.535 0v3.313A.917.917 0 0 0 33.632 30.109zM31.7 12.938a.546.546 0 0 1 .6 0l10.1 8.19.033-.023c-.01.025-.1.126-.334.126H38.657a.942.942 0 0 0-.942.942v7.935H35.146a.923.923 0 0 0 .184-.531V26.265a3.151 3.151 0 1 0-6.3 0v3.313a.917.917 0 0 0 .185.531H26.285V22.174a.941.941 0 0 0-.941-.942H21.9c-.233 0-.325-.1-.3-.1z"></path></svg>