<svg xmlns="http://www.w3.org/2000/svg" enable-background="new 0 0 500 421" viewBox="0 0 500 421" id="receptionist-working-on-her-desk-with-laptop"><path fill="#cce9ff" d="M282.929 70.162c6.118 2.655 11.852 5.597 17.049 8.732 18.172 10.955 32.79 26.902 50.647 37.89 16.862 10.374 37.454 12.896 56.749 14.629 33.633 3.023 103.781 32.014 91.115 85.744-4.608 19.554-20.858 32.835-29.178 50.543-8.85 18.836-7.921 42.327-22.012 58.658-6.199 7.178-14.756 11.92-23.541 15.514-58.465 23.896-124.121 22.786-186.114 20.153-48.931-2.081-127.521 8.91-170.5-17.925-21.338-13.321-10.242-49.742-25.007-69.302C29.73 258.36 12.844 247.566 4.549 226.99c-14.116-35.01 6.005-80.57 41.235-92.999 22.015-7.766 45.338-11.324 67.1-19.853 22.483-8.814 31.146-22.018 48.292-37.644 30.997-28.249 83.753-22.828 121.753-6.332z"></path><path fill="#d3d3d3" d="M399.037 211.428c-1.312-3.632-3.823-6.695-5.608-10.121-1.778-3.43-2.773-7.705-.909-11.084 1.749-3.164 5.654-4.902 6.777-8.337 1.218-3.723-1.345-7.496-3.475-10.784-2.128-3.287-3.865-7.854-1.349-10.856.85-1.012 2.064-1.654 2.968-2.62 3.21-3.45 1.17-8.991-1.009-13.169 0 0-.953-2.844-3.995-3.15-2.923-.894-4.906 1.363-4.906 1.363-3.623 3.011-7.64 7.336-6.016 11.759.462 1.238 1.337 2.298 1.725 3.562 1.16 3.739-2.206 7.28-5.439 9.49-3.233 2.212-7.058 4.698-7.37 8.603-.293 3.599 2.639 6.716 3.026 10.306.421 3.843-2.152 7.399-5.115 9.874-2.971 2.474-6.472 4.324-9.089 7.17-2.613 2.846-4.177 7.215-2.302 10.596 1.301 2.347 4.027 3.825 4.757 6.405 1.248 4.41-2.892 6.705-4.215 10.16-1.385 3.618.875 7.716 3.369 10.437 6.677 7.275 14.048 8.708 22.471 2.951 7.216-4.934 2.533-12.376 6.873-17.82 1.666-2.096 4.754-2.408 6.858-4.068 3.034-2.395 3.286-7.03 1.973-10.667z"></path><path fill="#f2f2f2" d="M391.046 148.851a107.601 107.601 0 0 0-3.491 12.224c-.468 2.07-.92 4.133-1.033 6.206-.108 2.046.14 4.169.346 6.268.48 4.209.68 8.627-.237 12.916-.452 2.142-1.161 4.273-2.352 6.21-.301.486-.63.952-.995 1.399-.343.427-.822.898-1.104 1.231-.671.686-1.201 1.545-1.714 2.396-1.881 3.535-2.801 7.71-2.582 11.667.081.981.193 1.965.465 2.881.108.469.276.906.459 1.331l.298.728c.112.271.229.54.323.81.73 2.183 1.092 4.446 1.033 6.721-.094 2.262-.524 4.567-1.622 6.642-.516 1.047-1.267 1.99-2.092 2.826-.457.378-.875.799-1.399 1.087l-1.298.815c-1.497 1.027-2.238 2.992-2.418 5.007-.223 2.027.003 4.151.443 6.211v.005a.122.122 0 0 1-.097.15.118.118 0 0 1-.142-.075 18.15 18.15 0 0 1-1.355-6.345 10.488 10.488 0 0 1 .496-3.352c.34-1.121 1.067-2.156 1.965-2.975l1.309-1.012c.398-.26.707-.623 1.054-.941.61-.718 1.162-1.491 1.527-2.386.805-1.735 1.108-3.725 1.092-5.695.028-1.974-.332-3.967-.973-5.799l-.558-1.421a10.255 10.255 0 0 1-.54-1.686c-.301-1.134-.407-2.278-.477-3.41a24.791 24.791 0 0 1 3.338-12.804c.608-.949 1.235-1.897 2.071-2.717.424-.456.721-.72 1.058-1.106.321-.367.618-.757.886-1.173 1.092-1.655 1.813-3.591 2.299-5.584.473-2.004.73-4.073.795-6.154.081-2.077-.065-4.175-.215-6.298-.119-2.126-.297-4.254-.098-6.452.214-2.17.758-4.256 1.313-6.307a107.596 107.596 0 0 1 3.988-12.131.127.127 0 0 1 .165-.07.13.13 0 0 1 .069.162z"></path><path fill="#d3d3d3" d="M302.283 211.428c1.313-3.632 3.828-6.695 5.606-10.121 1.783-3.43 2.781-7.705.914-11.084-1.75-3.164-5.654-4.902-6.776-8.337-1.223-3.723 1.345-7.496 3.472-10.784 2.128-3.287 3.864-7.854 1.351-10.856-.85-1.012-2.065-1.654-2.967-2.62-3.21-3.45-1.17-8.991 1.004-13.169 0 0 .954-2.844 3.996-3.15 2.926-.894 4.907 1.363 4.907 1.363 3.619 3.011 7.64 7.336 6.013 11.759-.457 1.238-1.334 2.298-1.724 3.562-1.159 3.739 2.209 7.28 5.439 9.49 3.234 2.212 7.058 4.698 7.372 8.603.292 3.599-2.638 6.716-3.029 10.306-.419 3.843 2.154 7.399 5.121 9.874 2.967 2.474 6.47 4.324 9.084 7.17s4.176 7.215 2.302 10.596c-1.301 2.347-4.027 3.825-4.754 6.405-1.254 4.41 2.892 6.705 4.212 10.16 1.385 3.618-.877 7.716-3.369 10.437-6.679 7.275-14.048 8.708-22.474 2.951-7.212-4.934-2.53-12.376-6.866-17.82-1.672-2.096-4.757-2.408-6.863-4.068-3.032-2.395-3.281-7.03-1.971-10.667z"></path><path fill="#f2f2f2" d="M310.276 148.851a107.587 107.587 0 0 1 3.488 12.224c.473 2.07.923 4.133 1.042 6.206.103 2.046-.148 4.169-.355 6.268-.479 4.209-.676 8.627.237 12.916.456 2.142 1.167 4.273 2.358 6.21.296.486.629.952.995 1.399.342.427.822.898 1.101 1.231.671.686 1.201 1.545 1.713 2.396 1.884 3.535 2.808 7.71 2.586 11.667-.084.981-.197 1.965-.465 2.881a7.94 7.94 0 0 1-.458 1.331l-.301.728c-.112.271-.228.54-.32.81-.732 2.183-1.098 4.446-1.036 6.721.095 2.262.524 4.567 1.624 6.642.513 1.047 1.265 1.99 2.092 2.826.459.378.874.799 1.395 1.087l1.301.815c1.494 1.027 2.234 2.992 2.414 5.007.228 2.027-.003 4.151-.44 6.211l-.002.005a.125.125 0 0 0 .098.15.118.118 0 0 0 .142-.075 18.198 18.198 0 0 0 1.359-6.345 10.15 10.15 0 0 0-.505-3.352c-.335-1.121-1.056-2.156-1.959-2.975l-1.31-1.012c-.399-.26-.71-.623-1.047-.941-.616-.718-1.168-1.491-1.533-2.386-.802-1.735-1.104-3.725-1.092-5.695-.03-1.974.331-3.967.975-5.799l.56-1.421c.222-.557.412-1.116.537-1.686.303-1.134.409-2.278.476-3.41a24.77 24.77 0 0 0-3.336-12.804c-.611-.949-1.237-1.897-2.072-2.717-.429-.456-.719-.72-1.058-1.106a10.886 10.886 0 0 1-.886-1.173c-1.09-1.655-1.809-3.591-2.299-5.584a31.492 31.492 0 0 1-.796-6.154c-.078-2.077.069-4.175.214-6.298.118-2.126.295-4.254.101-6.452-.215-2.17-.761-4.256-1.312-6.307a107.005 107.005 0 0 0-3.99-12.131.127.127 0 0 0-.164-.07.132.132 0 0 0-.072.162z"></path><path fill="#f2f2f2" d="M377.165 197.886c-2.647-4.37-6.699-7.681-9.903-11.661-3.202-3.977-5.606-9.258-4.068-14.126 1.441-4.552 6.052-7.826 6.614-12.571.605-5.14-3.7-9.359-7.312-13.067-3.613-3.707-7.054-9.17-4.577-13.717.836-1.533 2.246-2.677 3.16-4.165 3.26-5.306-.82-11.957-4.732-16.801 0 0-1.978-3.445-5.998-3.049-4.023-.396-6.001 3.049-6.001 3.049-3.912 4.844-7.994 11.495-4.733 16.801.914 1.487 2.323 2.631 3.16 4.165 2.477 4.547-.966 10.01-4.58 13.717-3.609 3.708-7.919 7.927-7.313 13.067.565 4.745 5.171 8.018 6.611 12.571 1.541 4.868-.858 10.148-4.062 14.126-3.201 3.98-7.256 7.292-9.902 11.661-2.645 4.367-3.536 10.437-.224 14.33 2.296 2.701 6.211 3.908 7.835 7.063 2.762 5.388-2.008 9.439-2.82 14.26-.853 5.055 3.141 9.774 7.083 12.649 10.554 7.688 20.474 7.622 29.891-2.037 8.066-8.266.056-16.687 4.26-24.875 1.619-3.152 5.539-4.359 7.833-7.06 3.31-3.894 2.422-9.964-.222-14.33z"></path><path fill="#f7f7f7" d="M309.903 244.93h80.892v10.874h-80.892z"></path><path fill="#d3d3d3" d="M373.539 360.208h-46.38L317.6 255.804h65.492zM347.797 242.822c-1.58-2.37 0 0-.674-2.855a13.65 13.65 0 0 1-.226-4.474c.144-1.539.814-3.074 1.772-4.367l1.43-1.653c.451-.437.753-.992 1.115-1.493.607-1.088 1.12-2.236 1.36-3.485.593-2.462.465-5.122-.062-7.668-.479-2.567-1.466-5.055-2.78-7.259l-1.092-1.698a13.533 13.533 0 0 1-1.137-2.044c-.686-1.392-1.118-2.846-1.505-4.297a32.79 32.79 0 0 1 .992-17.46c.54-1.386 1.101-2.778 1.972-4.055.438-.701.746-1.124 1.082-1.711.318-.559.604-1.143.846-1.751.987-2.429 1.415-5.126 1.524-7.837.089-2.716-.117-5.467-.568-8.18-.441-2.711-1.184-5.392-1.925-8.103-.703-2.727-1.487-5.44-1.806-8.336-.292-2.871-.123-5.715.055-8.515a141.403 141.403 0 0 1 2.015-16.757.164.164 0 0 1 .193-.136.169.169 0 0 1 .134.187 140.767 140.767 0 0 0-1.341 16.749c-.069 2.802-.112 5.599.271 8.311.399 2.679 1.279 5.365 2.089 8.032 1.717 5.33 3.127 11.004 3.056 16.798-.034 2.897-.393 5.842-1.435 8.666a16.63 16.63 0 0 1-.92 2.066c-.337.646-.833 1.377-1.115 1.883-.689 1.066-1.146 2.319-1.596 3.55-1.519 5.075-1.622 10.725-.307 15.794.365 1.253.763 2.496 1.352 3.613.264.579.593 1.105.939 1.611l.582.863c.218.317.435.635.625.965 1.515 2.638 2.58 5.475 3.089 8.44.471 2.959.512 6.054-.371 9.03-.393 1.494-1.12 2.907-1.975 4.204-.493.613-.922 1.268-1.526 1.777l-1.475 1.394c-1.669 1.723-2.112 4.458-1.822 7.115.236 2.688.958-1.192 2.06 1.363"></path><path fill="#f1b99e" d="M191.485 222.734c-.39-.129-4.874.426-6.659 1.253-1.791.825-6.227 1.281-5.837.083.401-1.188 7.705-5.316 10.703-5.725 3.001-.401 6.702-.367 6.702-.367l3.109 4.041"></path><path fill="#f7f7f7" d="M221.628 177.301c-1.792 8.6-5.172 20.96-6.049 22.479-.393.679-1.881 1.865-3.92 3.573-2.962 2.472-19.446 14.233-19.446 14.233-.069 2.958 3.952 7.053 3.952 7.053 2.689-1.65 8.262-4.932 14.237-8.156 6.882-3.714 11.85-7.403 13.141-9.352 2.412-3.647 10.794-25.823 12.491-31.405.652-2.149 1.388-5.742 2.056-9.348.88-4.754 1.616-9.528 1.85-11.05l.078-.497v-.003s-3.567-4.666-10.094.113c.001-.001-4.618 4.701-8.296 22.36z"></path><path fill="#ffbe55" d="M254.06 128.357c-1.357 4.428.371 8.883 3.859 9.946 3.488 1.063 7.406-1.667 8.758-6.098 1.352-4.428-.374-8.884-3.862-9.948-3.486-1.064-7.406 1.667-8.755 6.1z"></path><path fill="#eebea7" d="M230.014 216.947s-5.375 25.018-6.609 31.317c-1.237 6.298-4.695 36.805-5.068 41.993-.371 5.186-5.609 24.731-5.363 26.588.247 1.85-7.771 39.065-7.771 39.065s2.737 2.206 5.625.201c1.486-1.033 17.592-34.842 17.592-44.107 0-12.803 9.468-29.518 10.691-32.383 11.348-26.612 9.115-34.749 10.597-36.478 1.483-1.727 1.611 1.071 2.474 4.899.864 3.828 2.717 36.928 3.828 41.127 1.109 4.199.248 18.404.864 25.569.618 7.164 3.33 39.565 3.33 39.565s2.101 3.296 5.049.089c.629-.688 5.088-36.097 5.207-44.62.128-8.52.256-20.274.494-23.96 2.291-35.316 7.916-40.358-.94-65.355-16.587-46.799-40-3.51-40-3.51z"></path><path fill="#0b4870" d="M266.133 209.957s15.32 21.439 8.726 67.053c0 0-36.337 4.943-55.813-5.718 0 0 8.055-47.028 10.969-54.345 2.919-7.319 36.118-6.99 36.118-6.99z"></path><path fill="#0e538c" d="M245.568 149.021s-6.621 2.761-8.581 3.152c-1.959.392-8.587 10.177-9.919 13.782-1.332 3.605 0 9.015 2.744 15.365 2.741 6.352.159 8.469 1.412 14.818 1.254 6.352-2.795 19.891-3.032 23.421-.234 3.528 36.859 4.099 44.146-2.33 0 0-7.325-10.978-8.264-12.546-.945-1.568-.159-10.115.7-12.308.866-2.194 6.606-20.862 6.606-20.862s4.695-14.336.457-17.632c-3.687-2.864-13.731-3.881-15.531-4.509-1.806-.625-7.05-.897-10.738-.351z"></path><path fill="#eebea7" d="M242.876 142.507s.153 1.415.337 3.371c.078.869.168 1.844.247 2.845.234 2.854.418 5.939.312 7.511 0 0 5.859 5.881 12.535-6.859 0 0-2.811-5.253-.696-12.407 2.114-7.156-12.735 5.539-12.735 5.539z"></path><path fill="#eebea7" d="M240.873 109.975s-13.149 4.13-6.015 26.828c7.144 22.697 25.107-2.63 23.229-16.459-1.881-13.827-17.214-10.369-17.214-10.369z"></path><path fill="#ffbe55" d="M233.514 123.217s6.543 6.412 17.476 7.214c0 0 4.202 4.93 4.53 6.862 0 0 11.44-19.112-2.242-26.602-14.492-7.937-24.169 8.418-19.764 12.526z"></path><path fill="#eebea7" d="M251.073 130.3c.089-1.649 1.106-5.408 3.558-4.358 2.455 1.054-.15 8.71-1.781 8.239 0 0-1.972.029-1.777-3.881z"></path><path fill="#a77860" d="M243.213 145.878c.078.869.168 1.844.247 2.845h.003c7.606-3.751 8.766-9.168 8.805-9.333-5.421 7-9.055 6.488-9.055 6.488z"></path><path fill="#f7f7f7" d="m257.273 149.614-14.397 18.234-.669-17.473s4.488-3.589 15.066-.761z"></path><path fill="#0e538c" d="M104.764 226.848h224.329v6.921H104.764z" transform="rotate(-180 216.929 230.308)"></path><path fill="#2a94f4" d="M100.209 226.848h191.052v6.921H100.209z" transform="rotate(-180 195.735 230.308)"></path><path fill="#f2f2f2" d="m147.291 209.579 65.359 1.873 2.003-1.873-11.215-43.604h-67.367l-2.001 1.873z"></path><path fill="#d3d3d3" d="M145.288 211.452h67.362l-11.221-43.604H134.07z"></path><path fill="#f2f2f2" d="M174.201 200.13h3.062v23.63h-3.062z"></path><path fill="#f7f7f7" d="M188.68 226.848h-9.715v-3.087h6.631a3.084 3.084 0 0 1 3.084 3.087zM166.753 200.13h7.824v23.63h-7.824z"></path><path fill="#d3d3d3" d="M180.161 223.761v3.087h-24.828a3.084 3.084 0 0 1 3.084-3.087h21.744z"></path><path fill="#0e538c" d="M104.764 233.769h186.497v61.88H104.764z"></path><path fill="#0b4870" d="M291.262 233.769h31.698v61.88h-31.698z"></path><path fill="#0e538c" d="M104.764 292.187h224.329v6.924H104.764z" transform="rotate(-180 216.929 295.65)"></path><path fill="#2a94f4" d="M100.209 292.187h191.052v6.924H100.209z" transform="rotate(-180 195.735 295.65)"></path><path fill="#0e538c" d="M104.764 299.111h186.497v61.879H104.764z"></path><path fill="#0b4870" d="M291.262 299.111h31.698v61.879h-31.698z"></path><path fill="#0e538c" d="M104.764 357.531h224.329v6.923H104.764z" transform="rotate(-180 216.929 360.992)"></path><path fill="#2a94f4" d="M100.209 357.531h191.052v6.923H100.209z" transform="rotate(-180 195.735 360.992)"></path><path fill="#f1b99e" d="M225.219 222.734c-.389-.129-4.876.426-6.657 1.253-1.788.825-6.224 1.281-5.834.083.399-1.188 7.701-5.316 10.7-5.725 3.001-.401 6.704-.367 6.704-.367l3.11 4.041"></path><path fill="#f7f7f7" d="M256.574 177.627c-1.792 8.6-5.174 20.958-6.049 22.479-.396.678-1.883 1.865-3.92 3.571-2.959 2.474-19.446 14.234-19.446 14.234-.072 2.955 3.95 7.053 3.95 7.053 2.689-1.652 8.266-4.934 14.238-8.156 6.883-3.714 11.851-7.403 13.143-9.354 2.411-3.646 10.791-25.823 12.49-31.404.649-2.149 1.393-5.742 2.06-9.35a392.991 392.991 0 0 0 1.845-11.05c.047-.299.076-.474.078-.496v-.005c-.81-2.389-3.566-4.666-10.092.113 0 .003-4.62 4.705-8.297 22.365z"></path><path fill="#2a94f4" fill-rule="evenodd" d="m242.9 168.072-.693-17.697c-4.438 3.623-6.091 1.865-9.179 1.178 1.36 3.984 4.86 6.686 7.487 6.989l2.385 9.53z" clip-rule="evenodd"></path><path fill="#2a94f4" fill-rule="evenodd" d="m242.876 167.848 14.397-18.234c1.281 7.021 4.218 3.776 7.375 5.326-3.982 3.15-10.501 6.344-12.987 4.729l-8.785 8.179z" clip-rule="evenodd"></path><path fill="#f7f7f7" d="M230.581 163.115h5.175v10.895h-5.175z" transform="rotate(-83.529 233.18 168.567)"></path><path fill="#2a94f4" d="M124.78 250.225h140.863v24.399H124.78z"></path><path fill="#f7f7f7" d="M185.597 223.761h57.616v3.087h-57.616z"></path></svg>

