<svg xmlns="http://www.w3.org/2000/svg" viewBox="0 0 25 25" id="content-management"><path d="M17.94,19.656a3.292,3.292,0,0,1,1.56.4v.752H16a3.674,3.674,0,0,0-3.5-3.818A3.674,3.674,0,0,0,9,20.812H5.5V20.06a3.292,3.292,0,0,1,1.56-.4l.42-1.4a4.013,4.013,0,0,1-1.05-1.32l.81-1.233a3.5,3.5,0,0,1,1.48.687l1.09-.873a4.17,4.17,0,0,1-.13-1.734L11,13.318a3.938,3.938,0,0,1,.82,1.494h1.36A3.938,3.938,0,0,1,14,13.318l1.32.469a4.17,4.17,0,0,1-.13,1.734l1.09.873a3.5,3.5,0,0,1,1.48-.687l.81,1.233a4.013,4.013,0,0,1-1.05,1.32ZM21.96,8.31V8.3a.418.418,0,0,0-.11-.15l-.07-.07L17.92,4.22l-.07-.07a.418.418,0,0,0-.15-.11h-.01A.433.433,0,0,0,17.5,4H3.5a.5.5,0,0,0-.5.5V20.81H4V5H17V8.5a.5.5,0,0,0,.5.5H21V20.81h1V8.5A.433.433,0,0,0,21.96,8.31ZM9.5,11a.5.5,0,0,0,.5-.5v-4A.5.5,0,0,0,9.5,6h-4a.5.5,0,0,0-.5.5v4a.5.5,0,0,0,.5.5Zm6-4a.5.5,0,0,0,0-1h-3a.5.5,0,0,0,0,1ZM11,8.5a.5.5,0,0,0,.5.5h4a.5.5,0,0,0,0-1h-4A.5.5,0,0,0,11,8.5ZM19.5,10h-8a.5.5,0,0,0,0,1h8a.5.5,0,0,0,0-1Zm0,2h-2a.5.5,0,0,0,0,1h2a.5.5,0,0,0,0-1Zm-11,1a.5.5,0,0,0,0-1h-3a.5.5,0,0,0,0,1Z" data-name="Content Management"></path></svg>