<svg xmlns="http://www.w3.org/2000/svg" width="24" height="24" fill="none" viewBox="0 0 24 24" id="history"><path fill="#AAA" fill-rule="evenodd" d="M12 7.25C12.4142 7.25 12.75 7.58579 12.75 8V11.6893L15.0303 13.9697C15.3232 14.2626 15.3232 14.7374 15.0303 15.0303C14.7374 15.3232 14.2626 15.3232 13.9697 15.0303L11.4697 12.5303C11.329 12.3897 11.25 12.1989 11.25 12V8C11.25 7.58579 11.5858 7.25 12 7.25Z" clip-rule="evenodd"></path><path fill="#111" fill-rule="evenodd" d="M5.07881 5.06897C8.87414 1.27899 15.0438 1.31929 18.8623 5.13784C22.6825 8.95803 22.7212 15.1313 18.9263 18.9263C15.1314 22.7212 8.95805 22.6825 5.13786 18.8623C2.87401 16.5984 1.93916 13.51 2.34059 10.5813C2.39684 10.1709 2.77512 9.88383 3.18549 9.94008C3.59587 9.99633 3.88295 10.3746 3.8267 10.785C3.48672 13.2653 4.27794 15.8811 6.19852 17.8016C9.443 21.0461 14.6665 21.0647 17.8656 17.8656C21.0647 14.6665 21.0461 9.44298 17.8017 6.1985C14.5588 2.95568 9.33901 2.93545 6.13947 6.12963L6.88717 6.13339C7.30138 6.13547 7.63547 6.47294 7.63339 6.88715C7.63131 7.30136 7.29384 7.63545 6.87963 7.63337L4.33408 7.62058C3.92281 7.61851 3.58993 7.28562 3.58786 6.87436L3.57507 4.3288C3.57299 3.9146 3.90708 3.57713 4.32129 3.57505C4.7355 3.57296 5.07297 3.90706 5.07505 4.32127L5.07881 5.06897Z" clip-rule="evenodd"></path></svg>