<svg id="SvgjsSvg1021" width="288" height="288" xmlns="http://www.w3.org/2000/svg" version="1.1" xmlns:xlink="http://www.w3.org/1999/xlink" xmlns:svgjs="http://svgjs.com/svgjs"><defs id="SvgjsDefs1022"></defs><g id="SvgjsG1023"><svg xmlns="http://www.w3.org/2000/svg" data-name="Layer 1" viewBox="0 0 48 48" width="288" height="288"><path fill="#ffffff" d="M44.62 20.22l-18.75-15a3 3 0 0 0-3.74 0l-18.75 15a1 1 0 1 0 1.24 1.56L8 19.08V41a3 3 0 0 0 3 3h7a1 1 0 0 0 1-1V25a3 3 0 0 1 3-3h4a3 3 0 0 1 3 3V43a1 1 0 0 0 1 1h7a3 3 0 0 0 3-3V19.08l3.38 2.7A1 1 0 0 0 44 22a1 1 0 0 0 .78-.38A1 1 0 0 0 44.62 20.22zM38.38 13.7A1 1 0 0 0 40 12.92V8a1 1 0 0 0-1-1H32.85a1 1 0 0 0-.62 1.78z" class="color42c3cf svgShape"></path></svg></g></svg>