<svg xmlns="http://www.w3.org/2000/svg" viewBox="0 0 25 25" id="logout"><path d="M18.80273,16.14014v4.0498a.49971.49971,0,0,1-.5.5H7.813a.49971.49971,0,0,1-.5-.5V16.06982a.5.5,0,1,1,1,0v3.62012h9.48974v-3.5498A1.50094,1.50094,0,0,0,16.315,14.64136l-.0108.00219H11.47949a.5.5,0,0,1,0-1h4.80628c.006-.00018.01092-.00341.017-.00341A2.50294,2.50294,0,0,1,18.80273,16.14014Zm-.5-11.83008H7.813a.49971.49971,0,0,0-.5.5V8.93994a.5.5,0,0,0,1,0V5.31006h9.48974v3.5498A1.50094,1.50094,0,0,1,16.315,10.35864l-.0108-.00219h-4.833V8.88135a.5002.5002,0,0,0-.82324-.38184L6.374,12.11865a.49977.49977,0,0,0,0,.7627L10.648,16.50049a.50028.50028,0,1,0,.64648-.76367L7.47119,12.5l3-2.54v.89649a.49972.49972,0,0,0,.5.5h5.31458c.006.00018.01092.00341.017.00341a2.50294,2.50294,0,0,0,2.5-2.5V4.81006A.49971.49971,0,0,0,18.30273,4.31006Z"></path></svg>