<svg xmlns="http://www.w3.org/2000/svg" width="64" height="64" enable-background="new 0 0 64 64" viewBox="0 0 64 64" id="online-course-list"><rect width="49" height="58" x="7.5" y="5" fill="#E6E9ED"></rect><polygon fill="#545C66" points="21.5 52 21.5 56 15.5 56 15.5 52 18.5 53"></polygon><path fill="#CCD1D9" d="M56.5,5h-49V3c0-1.11,0.89-2,2-2h45c1.11,0,2,0.89,2,2V5z"></path><polygon fill="#656D78" points="24.5 32 21.5 33 18.5 34 15.5 33 12.5 32 18.5 30"></polygon><polygon fill="#545C66" points="21.5 13.99 21.5 17.99 15.5 17.99 15.5 13.99 18.5 14.99"></polygon><polygon fill="#545C66" points="21.5 33 21.5 37 15.5 37 15.5 33 18.5 34"></polygon><polygon fill="#656D78" points="24.5 12.99 21.5 13.99 18.5 14.99 15.5 13.99 12.5 12.99 18.5 10.99"></polygon><polygon fill="#656D78" points="24.5 51 21.5 52 18.5 53 15.5 52 12.5 51 18.5 49"></polygon><g><path d="M7.5 4.001c-.553 0-1-.447-1-1 0-1.654 1.346-3 3-3 .553 0 1 .447 1 1s-.447 1-1 1c-.552 0-1 .448-1 1C8.5 3.554 8.053 4.001 7.5 4.001zM56.5 4.001c-.553 0-1-.447-1-1 0-.552-.448-1-1-1-.553 0-1-.447-1-1s.447-1 1-1c1.654 0 3 1.346 3 3C57.5 3.554 57.053 4.001 56.5 4.001z"></path><path d="M54.5 2.001h-45c-.553 0-1-.447-1-1s.447-1 1-1h45c.553 0 1 .447 1 1S55.053 2.001 54.5 2.001zM56.5 6.001c-.553 0-1-.447-1-1v-2c0-.553.447-1 1-1s1 .447 1 1v2C57.5 5.554 57.053 6.001 56.5 6.001zM7.5 6.001c-.553 0-1-.447-1-1v-2c0-.553.447-1 1-1s1 .447 1 1v2C8.5 5.554 8.053 6.001 7.5 6.001z"></path><path d="M56.5 6.001h-49c-.553 0-1-.447-1-1s.447-1 1-1h49c.553 0 1 .447 1 1S57.053 6.001 56.5 6.001zM10.53 4.001c-.553 0-1.005-.447-1.005-1s.442-1 .994-1h.011c.552 0 1 .447 1 1S11.082 4.001 10.53 4.001zM13.53 4.001c-.553 0-1.005-.447-1.005-1s.442-1 .994-1h.011c.552 0 1 .447 1 1S14.082 4.001 13.53 4.001zM16.532 4.001c-.553 0-1.005-.447-1.005-1s.442-1 .994-1h.011c.552 0 1 .447 1 1S17.084 4.001 16.532 4.001z"></path><path d="M7.5 63.999c-.553 0-1-.447-1-1V5.001c0-.553.447-1 1-1s1 .447 1 1v57.998C8.5 63.552 8.053 63.999 7.5 63.999zM56.5 63.999c-.553 0-1-.447-1-1V5.001c0-.553.447-1 1-1s1 .447 1 1v57.998C57.5 63.552 57.053 63.999 56.5 63.999z"></path><path d="M56.5 63.999h-49c-.553 0-1-.447-1-1s.447-1 1-1h49c.553 0 1 .447 1 1S57.053 63.999 56.5 63.999zM51.5 44.996h-39c-.553 0-1-.447-1-1s.447-1 1-1h39c.553 0 1 .447 1 1S52.053 44.996 51.5 44.996zM51.5 26h-39c-.553 0-1-.447-1-1s.447-1 1-1h39c.553 0 1 .447 1 1S52.053 26 51.5 26zM39.51 54.999H28.505c-.553 0-1-.447-1-1s.447-1 1-1H39.51c.553 0 1 .447 1 1S40.063 54.999 39.51 54.999zM35.506 58.999h-7.001c-.553 0-1-.447-1-1s.447-1 1-1h7.001c.553 0 1 .447 1 1S36.059 58.999 35.506 58.999zM50.517 51.997H28.505c-.553 0-1-.447-1-1s.447-1 1-1h22.012c.553 0 1 .447 1 1S51.069 51.997 50.517 51.997zM50.517 48.999H28.505c-.553 0-1-.447-1-1s.447-1 1-1h22.012c.553 0 1 .447 1 1S51.069 48.999 50.517 48.999zM39.496 57.999h-1c-.553 0-1-.447-1-1s.447-1 1-1h1c.553 0 1 .447 1 1S40.049 57.999 39.496 57.999z"></path><path d="M39.497,59.999c-0.367,0-0.72-0.202-0.896-0.553l-1-2c-0.247-0.494-0.047-1.095,0.447-1.342
			c0.494-0.246,1.094-0.047,1.342,0.447l1,2c0.247,0.494,0.047,1.095-0.447,1.342C39.8,59.965,39.647,59.999,39.497,59.999z"></path><path d="M39.496 59.999h-1c-.553 0-1-.447-1-1s.447-1 1-1h1c.553 0 1 .447 1 1S40.049 59.999 39.496 59.999zM39.51 36.001H28.505c-.553 0-1-.447-1-1s.447-1 1-1H39.51c.553 0 1 .447 1 1S40.063 36.001 39.51 36.001zM35.506 40.001h-7.001c-.553 0-1-.447-1-1s.447-1 1-1h7.001c.553 0 1 .447 1 1S36.059 40.001 35.506 40.001zM50.517 32.999H28.505c-.553 0-1-.447-1-1s.447-1 1-1h22.012c.553 0 1 .447 1 1S51.069 32.999 50.517 32.999zM50.517 30.001H28.505c-.553 0-1-.447-1-1s.447-1 1-1h22.012c.553 0 1 .447 1 1S51.069 30.001 50.517 30.001zM39.496 39.001h-1c-.553 0-1-.447-1-1s.447-1 1-1h1c.553 0 1 .447 1 1S40.049 39.001 39.496 39.001z"></path><path d="M39.497,41.001c-0.367,0-0.72-0.202-0.896-0.553l-1-2c-0.247-0.494-0.047-1.095,0.447-1.342
			c0.494-0.245,1.094-0.047,1.342,0.447l1,2c0.247,0.494,0.047,1.095-0.447,1.342C39.8,40.967,39.647,41.001,39.497,41.001z"></path><path d="M39.496 41.001h-1c-.553 0-1-.447-1-1s.447-1 1-1h1c.553 0 1 .447 1 1S40.049 41.001 39.496 41.001zM39.51 17.003H28.505c-.553 0-1-.447-1-1s.447-1 1-1H39.51c.553 0 1 .447 1 1S40.063 17.003 39.51 17.003zM35.506 21.003h-7.001c-.553 0-1-.447-1-1s.447-1 1-1h7.001c.553 0 1 .447 1 1S36.059 21.003 35.506 21.003zM50.517 14.001H28.505c-.553 0-1-.447-1-1s.447-1 1-1h22.012c.553 0 1 .447 1 1S51.069 14.001 50.517 14.001zM50.517 11.003H28.505c-.553 0-1-.447-1-1s.447-1 1-1h22.012c.553 0 1 .447 1 1S51.069 11.003 50.517 11.003zM39.496 20.003h-1c-.553 0-1-.447-1-1s.447-1 1-1h1c.553 0 1 .447 1 1S40.049 20.003 39.496 20.003z"></path><path d="M39.497,22.003c-0.367,0-0.72-0.202-0.896-0.553l-1-2c-0.247-0.494-0.047-1.095,0.447-1.342
			c0.494-0.245,1.094-0.047,1.342,0.447l1,2c0.247,0.494,0.047,1.095-0.447,1.342C39.8,21.969,39.647,22.003,39.497,22.003z"></path><path d="M39.496 22.003h-1c-.553 0-1-.447-1-1s.447-1 1-1h1c.553 0 1 .447 1 1S40.049 22.003 39.496 22.003zM18.495 15.997c-.106 0-.214-.018-.316-.052l-6-2c-.408-.136-.684-.518-.684-.948s.275-.813.684-.948l6-2c.205-.068.428-.068.633 0l6 2c.408.136.684.518.684.948s-.275.813-.684.948l-6 2C18.709 15.979 18.602 15.997 18.495 15.997zM15.657 12.997l2.838.946 2.838-.946-2.838-.946L15.657 12.997z"></path><path d="M21.495 18.998h-6c-.553 0-1-.447-1-1v-4c0-.553.447-1 1-1s1 .447 1 1v3h4v-3.001c0-.553.447-1 1-1s1 .447 1 1v4.001C22.495 18.551 22.048 18.998 21.495 18.998zM24.495 15.997c-.553 0-1-.447-1-1v-2c0-.553.447-1 1-1s1 .447 1 1v2C25.495 15.55 25.048 15.997 24.495 15.997z"></path><g><path d="M18.495,34.999c-0.106,0-0.214-0.018-0.316-0.052l-6-2c-0.408-0.136-0.684-0.518-0.684-0.948s0.275-0.813,0.684-0.948
				l6-2c0.205-0.068,0.428-0.068,0.633,0l6,2c0.408,0.136,0.684,0.518,0.684,0.948s-0.275,0.813-0.684,0.948l-6,2
				C18.709,34.981,18.602,34.999,18.495,34.999z M15.657,31.999l2.838,0.946l2.838-0.946l-2.838-0.946L15.657,31.999z"></path><path d="M21.495 38h-6c-.553 0-1-.447-1-1v-4c0-.553.447-1 1-1s1 .447 1 1v3h4v-3.001c0-.553.447-1 1-1s1 .447 1 1V37C22.495 37.553 22.048 38 21.495 38zM24.495 34.999c-.553 0-1-.447-1-1v-2c0-.553.447-1 1-1s1 .447 1 1v2C25.495 34.552 25.048 34.999 24.495 34.999z"></path></g><g><path d="M18.495,54.001c-0.106,0-0.214-0.018-0.316-0.052l-6-2c-0.408-0.136-0.684-0.518-0.684-0.948s0.275-0.813,0.684-0.948
				l6-2c0.205-0.068,0.428-0.068,0.633,0l6,2c0.408,0.136,0.684,0.518,0.684,0.948s-0.275,0.813-0.684,0.948l-6,2
				C18.709,53.983,18.602,54.001,18.495,54.001z M15.657,51.001l2.838,0.946l2.838-0.946l-2.838-0.946L15.657,51.001z"></path><path d="M21.495 57.002h-6c-.553 0-1-.447-1-1v-4c0-.553.447-1 1-1s1 .447 1 1v3h4v-3.001c0-.553.447-1 1-1s1 .447 1 1v4.001C22.495 56.555 22.048 57.002 21.495 57.002zM24.495 54.001c-.553 0-1-.447-1-1v-2c0-.553.447-1 1-1s1 .447 1 1v2C25.495 53.554 25.048 54.001 24.495 54.001z"></path></g></g></svg>