<svg id="SvgjsSvg1019" width="288" height="288" xmlns="http://www.w3.org/2000/svg" version="1.1" xmlns:xlink="http://www.w3.org/1999/xlink" xmlns:svgjs="http://svgjs.com/svgjs"><defs id="SvgjsDefs1020"></defs><g id="SvgjsG1021"><svg xmlns="http://www.w3.org/2000/svg" fill="none" viewBox="0 0 26 32" width="288" height="288"><g filter="url(#a)" fill="#ffffff" class="color000 svgShape"><path fill="#000553" d="M0.756319 22.4493C-0.098001 17.8367 3.20932 15.1784 5.15514 13.9677C1.28271 10.0944 3.05335 4.91551 5.15514 3.18461C7.60071 1.17061 11.9782 0.255726 14.8364 3.71562C18.3658 7.98807 16.3076 12.2594 14.8364 13.9677C15.7856 14.7984 19.0486 16.9577 19.5271 21.3961C20.1308 26.996 1.82422 28.2151 0.756319 22.4493Z" class="color000553 svgShape"></path><path stroke="#ffffff" stroke-width=".509" d="M0.756319 22.4493C-0.098001 17.8367 3.20932 15.1784 5.15514 13.9677C1.28271 10.0944 3.05335 4.91551 5.15514 3.18461C7.60071 1.17061 11.9782 0.255726 14.8364 3.71562C18.3658 7.98807 16.3076 12.2594 14.8364 13.9677C15.7856 14.7984 19.0486 16.9577 19.5271 21.3961C20.1308 26.996 1.82422 28.2151 0.756319 22.4493Z" class="colorStroke000553 svgStroke"></path></g><defs><filter id="a" width="25.548" height="31.456" x=".363" y=".121" color-interpolation-filters="sRGB" filterUnits="userSpaceOnUse"><feFlood flood-opacity="0" result="BackgroundImageFix"></feFlood><feColorMatrix in="SourceAlpha" values="0 0 0 0 0 0 0 0 0 0 0 0 0 0 0 0 0 0 127 0"></feColorMatrix><feOffset dx="3.057" dy="2.038"></feOffset><feGaussianBlur stdDeviation="1.528"></feGaussianBlur><feColorMatrix values="0 0 0 0 0 0 0 0 0 0 0 0 0 0 0 0 0 0 0.25 0"></feColorMatrix><feBlend in2="BackgroundImageFix" result="effect1_dropShadow"></feBlend><feBlend in="SourceGraphic" in2="effect1_dropShadow" result="shape"></feBlend></filter></defs></svg></g></svg>