<svg xmlns="http://www.w3.org/2000/svg" viewBox="0 0 64 64" id="exam"><path d="M12 22H26a1 1 0 0 0 0-2H12a1 1 0 0 0 0 2zM38 36H12a1 1 0 0 0 0 2H38a1 1 0 0 0 0-2zM38 52H12a1 1 0 0 0 0 2H38a1 1 0 0 0 0-2z"></path><circle cx="14" cy="29" r="3"></circle><circle cx="25" cy="29" r="3"></circle><circle cx="14" cy="45" r="3"></circle><circle cx="25" cy="45" r="3"></circle><circle cx="36" cy="45" r="3"></circle><path d="M44,12a6,6,0,1,0,6,6A6,6,0,0,0,44,12Zm1,6a1,1,0,0,1-2,0V15a1,1,0,0,1,2,0Z"></path><path d="M59,17a15,15,0,0,0-29.12-5H6a1,1,0,0,0-1,1V61a1,1,0,0,0,1,1H44a1,1,0,0,0,1-1V32A15,15,0,0,0,59,17ZM7,60V14H29.3a14.82,14.82,0,0,0-.3,3A15,15,0,0,0,43,32V60ZM44,26a8,8,0,0,1-1-15.93V9H42a1,1,0,0,1,0-2h4a1,1,0,0,1,0,2H45v1.07A8,8,0,0,1,44,26Z"></path></svg>