<svg xmlns="http://www.w3.org/2000/svg" width="96" height="96" viewBox="0 0 25.4 25.4" id="student"><path d="M 47.960938 6.0019531 A 2.0002 2.0002 0 0 0 47.451172 6.0761719 L 19.451172 14.078125 A 2.0002 2.0002 0 0 0 19.451172 17.923828 L 28.707031 20.568359 L 26.082031 29.431641 A 2.0002 2.0002 0 0 0 26.023438 29.712891 L 22.09375 51.324219 C 17.321031 53.55679 14 58.390927 14 64 L 14 76 C 14 83.721409 20.278595 90 28 90 L 68 90 C 75.721401 90 82 83.721409 82 76 L 82 64 C 82 58.391553 78.680064 53.557124 73.908203 51.324219 L 69.978516 29.71875 A 2.0002 2.0002 0 0 0 69.917969 29.431641 L 67.292969 20.570312 L 74.003906 18.652344 L 74.003906 32 C 73.839194 34.82232 78.160817 34.82232 77.996094 32 L 77.996094 16.083984 A 2.0002 2.0002 0 0 0 76.550781 14.078125 L 48.550781 6.0761719 A 2.0002 2.0002 0 0 0 47.960938 6.0019531 z M 47.998047 10.076172 L 68.71875 15.996094 L 47.996094 21.916016 L 27.283203 15.996094 L 47.998047 10.076172 z M 32.554688 21.667969 L 47.451172 25.925781 A 2.0002 2.0002 0 0 0 48.550781 25.925781 L 63.445312 21.669922 L 65.550781 28.775391 C 63.70353 29.592907 57.834312 32 48 32 C 38.165692 32 32.296473 29.592907 30.449219 28.775391 L 32.554688 21.667969 z M 30.679688 33.197266 C 34.280894 34.421632 40.377003 36 48 36 C 55.595355 36 61.670977 34.435362 65.277344 33.212891 C 64.837703 35.33451 64.325562 37.882571 64.027344 39.671875 C 63.468847 43.022857 61.217247 46.717924 58.166016 49.474609 C 55.11478 52.231299 51.324265 54 48 54 C 44.679617 54 40.962955 52.229806 37.9375 49.464844 C 34.912042 46.699877 32.636428 42.984872 31.960938 39.607422 L 30.679688 33.197266 z M 28.099609 40.636719 C 28.821136 43.988328 30.563861 47.223202 32.919922 50 L 28 50 C 27.450898 50 26.911676 50.039797 26.378906 50.101562 L 28.099609 40.636719 z M 67.902344 40.646484 L 69.621094 50.101562 C 69.088324 50.039797 68.549102 50 68 50 L 63.208984 50 C 65.555969 47.241053 67.269992 44.01601 67.902344 40.646484 z M 28 54 L 31 54 L 42.400391 69.199219 A 2.0002 2.0002 0 0 0 45.414062 69.414062 L 48 66.828125 L 50.585938 69.414062 A 2.0002 2.0002 0 0 0 53.599609 69.199219 L 65 54 L 68 54 C 73.574588 54 78 58.425412 78 64 L 78 76 C 78 81.574595 73.574588 86 68 86 L 28 86 C 22.425407 86 18 81.574595 18 76 L 18 64 C 18 58.425412 22.425407 54 28 54 z M 36 54 L 37.171875 54 C 39.82513 55.986755 42.842315 57.414829 46 57.849609 L 46 63.171875 L 44.216797 64.955078 L 36 54 z M 58.923828 54 L 60 54 L 51.783203 64.955078 L 50 63.171875 L 50 57.849609 C 53.177814 57.41735 56.234858 55.993115 58.923828 54 z M 26 70 A 2.0000009 1.9999998 0 0 0 24 72 A 2.0000009 1.9999998 0 0 0 26 74 A 2.0000009 1.9999998 0 0 0 28 72 A 2.0000009 1.9999998 0 0 0 26 70 z M 48 70 A 2.0000009 1.9999998 0 0 0 46 72 A 2.0000009 1.9999998 0 0 0 48 74 A 2.0000009 1.9999998 0 0 0 50 72 A 2.0000009 1.9999998 0 0 0 48 70 z M 32 70.001953 A 2.0004927 2.0004927 0 1 0 32 74.003906 L 36.001953 74.003906 A 2.0004927 2.0004927 0 1 0 36.001953 70.001953 L 32 70.001953 z M 48 78 A 2.0000009 1.9999998 0 0 0 46 80 A 2.0000009 1.9999998 0 0 0 48 82 A 2.0000009 1.9999998 0 0 0 50 80 A 2.0000009 1.9999998 0 0 0 48 78 z " color="#000" font-family="sans-serif" font-weight="400" overflow="visible" transform="scale(.26458)" style="line-height:normal;font-variant-ligatures:normal;font-variant-position:normal;font-variant-caps:normal;font-variant-numeric:normal;font-variant-alternates:normal;font-feature-settings:normal;text-indent:0;text-align:start;text-decoration-line:none;text-decoration-style:solid;text-decoration-color:#000;text-transform:none;text-orientation:mixed;shape-padding:0;isolation:auto;mix-blend-mode:normal"></path></svg>